<?xml version="1.0" encoding="utf-8"?>
<!-- Generator: Adobe Illustrator 15.0.2, SVG Export Plug-In . SVG Version: 6.00 Build 0)  -->
<!DOCTYPE svg PUBLIC "-//W3C//DTD SVG 1.1//EN" "http://www.w3.org/Graphics/SVG/1.1/DTD/svg11.dtd">
<svg version="1.1" xmlns="http://www.w3.org/2000/svg" xmlns:xlink="http://www.w3.org/1999/xlink" x="0px" y="0px"
	 width="106.761px" height="85.883px" viewBox="0 0 106.761 85.883" enable-background="new 0 0 106.761 85.883"
	 xml:space="preserve">
<g id="object">
	<path fill="#B1B1B1" d="M99.57,55.782c0.834-0.573,1.626-1.22,2.356-1.951c3.117-3.116,4.834-7.259,4.834-11.667
		c0-4.407-1.717-8.55-4.833-11.667c-3.117-3.117-7.262-4.833-11.669-4.833c-2.367,0-4.65,0.51-6.747,1.452
		c-1.313-0.328-2.656-0.5-4.001-0.5c-7.448,0-13.999,5.03-15.93,12.232c-0.274,1.024-0.442,2.059-0.519,3.094
		c-1.527-1.358-3.269-2.458-5.156-3.248c0.09-1.045,0.09-2.097-0.002-3.143c3.685-1.546,6.823-4.258,8.867-7.797
		C71.872,18.919,68.834,7.582,60,2.48C57.189,0.857,53.995,0,50.763,0c-6.595,0-12.739,3.545-16.034,9.252
		c-2.044,3.539-2.824,7.614-2.32,11.579c-0.954,0.444-1.865,0.97-2.727,1.571c-3.181-2.417-7.098-3.778-11.185-3.778
		C8.298,18.623,0,26.922,0,37.122s8.299,18.5,18.5,18.501h0.002c4.079-0.001,7.991-1.361,11.169-3.772
		c0.43,0.302,0.868,0.594,1.328,0.859c0.463,0.267,0.938,0.502,1.418,0.726c-0.498,3.957,0.282,8.023,2.322,11.557
		c3.294,5.706,9.438,9.252,16.032,9.252c0.001,0,0.001,0,0.002,0c3.231,0,6.425-0.857,9.237-2.48
		c1.101-0.636,2.118-1.375,3.048-2.199c0.075,1.048,0.246,2.098,0.524,3.136c1.93,7.201,8.48,12.23,15.929,12.23c0,0,0,0,0.001,0
		c1.344,0,2.688-0.172,3.999-0.5c2.097,0.941,4.381,1.451,6.748,1.451c4.407,0,8.552-1.717,11.669-4.834
		c3.116-3.116,4.833-7.259,4.833-11.666s-1.717-8.551-4.832-11.665C101.2,56.988,100.403,56.354,99.57,55.782z"/>
	<g>
		<path fill="#0000FF" stroke="#000000" stroke-miterlimit="10" d="M51.917,42.301c1.477-3.389,1.39-7.132-0.008-10.355
			L38.529,24.22c-3.49,0.401-6.777,2.197-8.972,5.17l-0.002,15.468c1.029,1.393,2.35,2.603,3.945,3.523
			c1.594,0.921,3.303,1.461,5.023,1.655L51.917,42.301z"/>
		<path fill="#FF0000" stroke="#000000" stroke-miterlimit="10" d="M29.557,29.39c-2.441-3.484-6.48-5.768-11.057-5.767
			C11.043,23.622,5,29.666,5,37.122s6.043,13.5,13.5,13.501c4.576-0.002,8.613-2.283,11.055-5.766L29.557,29.39z"/>
		<path fill="#FF0000" stroke="#000000" stroke-miterlimit="10" d="M51.91,31.945c4.241-0.369,8.242-2.727,10.532-6.692
			c3.729-6.458,1.516-14.714-4.941-18.442c-6.457-3.728-14.712-1.516-18.441,4.942c-2.291,3.966-2.331,8.609-0.53,12.467
			L51.91,31.945z"/>
		<path fill="#FF0000" stroke="#000000" stroke-miterlimit="10" d="M38.538,50.026c-1.801,3.856-1.759,8.499,0.531,12.467
			c3.728,6.458,11.983,8.669,18.441,4.941c6.457-3.728,8.67-11.983,4.941-18.441c-2.29-3.967-6.291-6.323-10.533-6.692
			L38.538,50.026z"/>
	</g>
	<circle fill="#FFFFFF" stroke="#000000" stroke-miterlimit="10" cx="79.52" cy="68.43" r="11.5"/>
	<circle fill="#FFFFFF" stroke="#000000" stroke-miterlimit="10" cx="79.52" cy="43.117" r="11.5"/>
	<circle fill="#0000FF" stroke="#000000" stroke-miterlimit="10" cx="77.262" cy="56.928" r="13"/>
	<path fill="#FFFFFF" stroke="#000000" stroke-miterlimit="10" d="M82.128,34.031c-2.502,2.504-3.606,5.873-3.319,9.143
		c0.228,2.6,7.845,10.215,10.442,10.443c3.27,0.285,6.639-0.818,9.141-3.322c4.492-4.49,4.491-11.771,0.001-16.262
		C93.899,29.541,86.62,29.541,82.128,34.031z"/>
	<path fill="#FFFFFF" stroke="#000000" stroke-miterlimit="10" d="M82.128,77.516c-2.502-2.504-3.606-5.873-3.319-9.143
		c0.228-2.6,7.845-10.215,10.442-10.443c3.27-0.285,6.639,0.818,9.141,3.322c4.492,4.49,4.491,11.771,0.001,16.262
		C93.899,82.006,86.62,82.006,82.128,77.516z"/>
</g>
<g id="circles">
	<circle id="Oxygen-Ion_2_" fill="none" cx="50.751" cy="18.473" r="18.485"/>
	<circle id="Oxygen-Ion_1_" fill="none" cx="18.485" cy="37.128" r="18.485"/>
	<circle id="Oxygen-Ion" fill="none" cx="50.751" cy="55.773" r="18.485"/>
	<circle id="Nitrogen-Ion_1_" fill="none" cx="39.89" cy="37.124" r="18.081"/>
	<circle id="Hydrogen-Ion_3_" fill="none" cx="90.262" cy="42.163" r="16.499"/>
	<circle id="Hydrogen-Ion_2_" fill="none" cx="79.519" cy="43.117" r="16.499"/>
	<circle id="Hydrogen-Ion_1_" fill="none" cx="79.519" cy="68.43" r="16.499"/>
	<circle id="Hydrogen-Ion" fill="none" cx="90.262" cy="69.385" r="16.499"/>
	<circle id="Nitrogen-Ion" fill="none" cx="77.262" cy="56.928" r="18.081"/>
</g>
</svg>
