<?xml version="1.0" encoding="utf-8"?>
<!-- Generator: Adobe Illustrator 15.0.2, SVG Export Plug-In . SVG Version: 6.00 Build 0)  -->
<!DOCTYPE svg PUBLIC "-//W3C//DTD SVG 1.1//EN" "http://www.w3.org/Graphics/SVG/1.1/DTD/svg11.dtd">
<svg version="1.1" xmlns="http://www.w3.org/2000/svg" xmlns:xlink="http://www.w3.org/1999/xlink" x="0px" y="0px"
	 width="93.999px" height="67.842px" viewBox="0 0 93.999 67.842" style="enable-background:new 0 0 93.999 67.842;"
	 xml:space="preserve">
<g id="object">
	<circle style="fill:#FFFFFF;stroke:#000000;stroke-miterlimit:10;" cx="12" cy="33.923" r="11.5"/>
	<g>
		<path style="fill:#2F2F2F;stroke:#000000;stroke-miterlimit:10;" d="M38.51,25.795c-2.606-3.846-7.012-6.374-12.009-6.374
			C18.493,19.422,12,25.913,12,33.922c0,8.007,6.493,14.5,14.5,14.5c4.997,0,9.401-2.527,12.009-6.373V25.795z"/>
		<path style="fill:#FFFFFF;stroke:#000000;stroke-miterlimit:10;" d="M93.499,53.839C93.5,47.488,88.353,42.341,82,42.34
			c-3.51,0.001-6.647,1.577-8.757,4.056l0.003,14.891c2.109,2.479,5.245,4.055,8.753,4.055C88.353,65.341,93.5,60.19,93.499,53.839z
			"/>
		<path style="fill:#2F2F2F;stroke:#000000;stroke-miterlimit:10;" d="M63.438,40.431c2.127-4.222,2.01-9.04,0.014-13.02
			l-13.788-7.96c-4.378,0.258-8.551,2.498-11.153,6.344v16.254c1.191,1.762,2.775,3.296,4.741,4.431
			c2.03,1.172,4.225,1.782,6.415,1.906L63.438,40.431z"/>
		<path style="fill:#FF0000;stroke:#000000;stroke-miterlimit:10;" d="M73.243,46.396c-2.287-3.458-5.926-5.547-9.806-5.965
			l-13.772,7.955c-1.678,3.805-1.595,8.326,0.644,12.204c3.728,6.458,11.983,8.669,18.441,4.941
			c1.875-1.083,3.379-2.554,4.496-4.245L73.243,46.396z"/>
		<path style="fill:#FF0000;stroke:#000000;stroke-miterlimit:10;" d="M63.451,27.411c4.132-0.451,8.003-2.783,10.241-6.658
			c3.729-6.458,1.515-14.714-4.941-18.441C62.293-1.417,54.038,0.795,50.31,7.253c-2.238,3.875-2.322,8.395-0.646,12.198
			L63.451,27.411z"/>
	</g>
	<path style="fill:#FFFFFF;stroke:#000000;stroke-miterlimit:10;" d="M13.857,27.061c2.637,0.521,12.244-5.03,13.106-7.584
		c1.026-3.024,0.802-6.455-0.919-9.438c-3.177-5.501-10.207-7.385-15.71-4.21C4.835,9.003,2.951,16.036,6.126,21.536
		C7.852,24.526,10.72,26.438,13.857,27.061z"/>
	<path style="fill:#FFFFFF;stroke:#000000;stroke-miterlimit:10;" d="M26.875,48.402c-0.867-2.545-10.477-8.087-13.119-7.56
		c-3.132,0.626-5.992,2.534-7.715,5.518c-3.176,5.501-1.292,12.534,4.209,15.71c5.499,3.175,12.533,1.291,15.709-4.21
		C27.686,54.872,27.907,51.433,26.875,48.402z"/>
</g>
<g id="outline">
	<path style="fill:none;" d="M82,42.34c-3.51,0.001-6.647,1.577-8.757,4.056c-2.287-3.458-5.926-5.547-9.806-5.965
		c2.127-4.222,2.01-9.04,0.014-13.02c4.132-0.451,8.003-2.783,10.241-6.658c3.729-6.458,1.515-14.714-4.941-18.441
		C62.293-1.417,54.038,0.795,50.31,7.253c-2.238,3.875-2.322,8.395-0.646,12.198c-4.378,0.258-8.551,2.498-11.153,6.344
		c-2.523-3.723-6.735-6.204-11.535-6.359c1.011-3.015,0.782-6.428-0.931-9.398c-3.177-5.501-10.207-7.385-15.71-4.21
		C4.835,9.003,2.951,16.036,6.126,21.536c0.384,0.666,0.833,1.27,1.321,1.827C3.362,25.127,0.5,29.189,0.5,33.923
		c0,4.721,2.848,8.773,6.918,10.545c-0.511,0.573-0.977,1.201-1.376,1.893c-3.176,5.501-1.292,12.534,4.209,15.71
		c5.499,3.175,12.533,1.291,15.709-4.21c1.724-2.985,1.946-6.422,0.917-9.45c4.84-0.124,9.09-2.613,11.632-6.361
		c1.191,1.762,2.775,3.296,4.741,4.431c2.03,1.172,4.225,1.782,6.415,1.906c-1.678,3.805-1.595,8.326,0.644,12.204
		c3.728,6.458,11.983,8.669,18.441,4.941c1.875-1.083,3.379-2.554,4.496-4.245c2.109,2.479,5.245,4.055,8.753,4.055
		c6.354,0,11.501-5.15,11.5-11.502C93.5,47.488,88.353,42.341,82,42.34z"/>
</g>
</svg>
