<?xml version="1.0" encoding="utf-8"?>
<!-- Generator: Adobe Illustrator 15.0.2, SVG Export Plug-In . SVG Version: 6.00 Build 0)  -->
<!DOCTYPE svg PUBLIC "-//W3C//DTD SVG 1.1//EN" "http://www.w3.org/Graphics/SVG/1.1/DTD/svg11.dtd">
<svg version="1.1" xmlns="http://www.w3.org/2000/svg" xmlns:xlink="http://www.w3.org/1999/xlink" x="0px" y="0px"
	 width="103.199px" height="66.796px" viewBox="0 0 103.199 66.796" enable-background="new 0 0 103.199 66.796"
	 xml:space="preserve">
<g id="object">
	<path fill="#B1B1B1" d="M96.36,25.08c-2.021-7.054-8.498-11.956-15.853-11.956c-1.439,0-2.878,0.19-4.278,0.565
		c-0.594,0.16-1.178,0.352-1.748,0.576c-0.286-2.092-0.976-4.134-2.061-6.013C69.482,3.162,64.003,0,58.121,0
		c-2.883,0-5.733,0.765-8.24,2.213c-3.061,1.768-5.405,4.415-6.809,7.585C38.717,7.005,33.547,5.377,28,5.377
		c-15.439,0-28,12.561-28,28s12.561,28.001,28,28.001c5.533,0,10.692-1.62,15.041-4.401c1.403,3.181,3.751,5.836,6.818,7.606
		c2.507,1.448,5.357,2.213,8.241,2.213c5.882,0,11.361-3.162,14.3-8.253c1.502-2.603,2.247-5.521,2.209-8.45
		c0.093-0.037,0.186-0.076,0.279-0.115c2.045,2.1,4.635,3.635,7.536,4.411c1.4,0.376,2.84,0.566,4.281,0.566
		c7.447,0,13.998-5.03,15.93-12.232C104.417,36.065,101.809,29.027,96.36,25.08z"/>
	<circle fill="#FFFFFF" stroke="#000000" stroke-miterlimit="10" cx="80.5" cy="29.627" r="11.5"/>
	<path fill="#0000FF" stroke="#000000" stroke-miterlimit="10" d="M61.36,22.147c-5.911,3.412-8.117,10.764-5.237,16.823
		c0.001,0,0.001,0,0.001,0l12.785,7.38l0,0c1.863-0.148,3.725-0.689,5.451-1.687c6.218-3.59,8.348-11.541,4.758-17.759
		S67.578,18.558,61.36,22.147z"/>
	<g>
		<path fill="#FFFFFF" stroke="#000000" stroke-miterlimit="10" d="M56.123,38.971c-3.233,0.569-6.202,2.507-7.973,5.573
			c-3.176,5.5-1.292,12.534,4.209,15.709c5.501,3.177,12.534,1.292,15.71-4.209c1.77-3.066,1.965-6.607,0.84-9.693L56.123,38.971z"
			/>
		<g>
			<path fill="#FFFFFF" stroke="#000000" stroke-miterlimit="10" d="M52.381,6.543c-5.5,3.176-7.385,10.208-4.208,15.708
				c1.768,3.063,4.733,5.002,7.964,5.572c2.569,0.455,11.896-4.923,12.79-7.368c1.13-3.087,0.936-6.634-0.836-9.703
				C64.915,5.251,57.882,3.367,52.381,6.543z"/>
		</g>
	</g>
	<path fill="#FFFFFF" stroke="#000000" stroke-miterlimit="10" d="M89.673,27.343c-3.418-0.915-6.889-0.187-9.577,1.697
		c-2.137,1.496-4.924,11.901-3.822,14.265c1.388,2.975,4.028,5.34,7.446,6.255c6.135,1.646,12.44-1.996,14.085-8.13
		C99.448,35.292,95.809,28.988,89.673,27.343z"/>
	<circle fill="#00FF00" stroke="#000000" stroke-miterlimit="10" cx="28" cy="33.377" r="23"/>
</g>
<g id="circles">
	<circle id="Chlorine-Ion" fill="none" cx="27.647" cy="33.377" r="28"/>
	<circle id="Hydrogen-Ion_3_" fill="none" cx="58.043" cy="16.425" r="16.425"/>
	<circle id="Hydrogen-Ion_2_" fill="none" cx="58.044" cy="49.975" r="16.577"/>
	<circle id="Hydrogen-Ion_1_" fill="none" cx="86.623" cy="38.452" r="16.577"/>
	<circle id="Hydrogen-Ion" fill="none" cx="80.5" cy="29.627" r="16.577"/>
	<circle id="Nitrogen-Ion" fill="none" cx="67.864" cy="33.397" r="17.822"/>
</g>
</svg>
