<?xml version="1.0" encoding="utf-8"?>
<!-- Generator: Adobe Illustrator 15.0.2, SVG Export Plug-In . SVG Version: 6.00 Build 0)  -->
<!DOCTYPE svg PUBLIC "-//W3C//DTD SVG 1.1//EN" "http://www.w3.org/Graphics/SVG/1.1/DTD/svg11.dtd">
<svg version="1.1" xmlns="http://www.w3.org/2000/svg" xmlns:xlink="http://www.w3.org/1999/xlink" x="0px" y="0px" width="118px"
	 height="88.494px" viewBox="0 0 118 88.494" enable-background="new 0 0 118 88.494" xml:space="preserve">
<g id="object">
	<path fill="#B1B1B1" d="M110.809,58.393c0.834-0.572,1.625-1.219,2.356-1.95c3.118-3.116,4.834-7.259,4.834-11.667
		c0-4.407-1.716-8.55-4.833-11.667c-3.118-3.116-7.262-4.833-11.668-4.833c-2.367,0-4.651,0.51-6.748,1.452
		c-1.312-0.328-2.656-0.5-4.001-0.5c-7.449,0-13.999,5.03-15.929,12.232c-0.274,1.024-0.443,2.06-0.52,3.095
		c-1.371-1.218-2.916-2.228-4.583-2.996c0.337-2.076,0.339-4.196,0.005-6.272c3.441-1.584,6.371-4.195,8.298-7.532
		c5.1-8.833,2.063-20.169-6.771-25.272C68.438,0.858,65.243,0,62.011,0c-6.594,0-12.738,3.545-16.033,9.252
		c-1.924,3.332-2.721,7.167-2.377,10.933c-3.714,1.398-6.936,3.911-9.234,7.309l-0.858,1.27V48.08l0.857,1.269
		c1.673,2.476,3.822,4.481,6.384,5.96c0.918,0.53,1.868,0.975,2.844,1.344c-0.345,3.768,0.452,7.604,2.376,10.938
		c3.295,5.704,9.438,9.248,16.032,9.249c0,0,0,0,0.001,0c3.232,0,6.428-0.858,9.24-2.482c1.103-0.637,2.121-1.378,3.051-2.203
		c0.074,1.056,0.247,2.112,0.527,3.157c1.93,7.201,8.48,12.231,15.929,12.231c0,0,0,0,0.001,0c1.345,0,2.688-0.172,4-0.5
		c2.097,0.941,4.381,1.451,6.748,1.451c4.407,0,8.551-1.717,11.669-4.834c3.116-3.116,4.833-7.259,4.833-11.666
		s-1.717-8.551-4.832-11.665C112.439,59.6,111.642,58.965,110.809,58.393z"/>
	<circle fill="#FFFFFF" stroke="#000000" stroke-miterlimit="10" cx="90.758" cy="71.041" r="11.5"/>
	<circle fill="#FFFFFF" stroke="#000000" stroke-miterlimit="10" cx="90.758" cy="45.729" r="11.5"/>
	<circle fill="#FFFFFF" stroke="#000000" stroke-miterlimit="10" cx="12" cy="38.422" r="11.5"/>
	<path fill="#2F2F2F" stroke="#000000" stroke-miterlimit="10" d="M38.508,30.295c-2.606-3.846-7.013-6.374-12.01-6.375
		C18.492,23.922,12,30.413,12,38.421c0,8.008,6.492,14.5,14.498,14.5c4.998,0,9.402-2.527,12.011-6.373V30.295z"/>
	<path fill="#2F2F2F" stroke="#000000" stroke-miterlimit="10" d="M63.436,44.93c2.127-4.221,2.009-9.039,0.014-13.019
		l-13.788-7.959c-4.378,0.258-8.552,2.498-11.153,6.344v16.253c1.19,1.762,2.774,3.295,4.741,4.43
		c2.029,1.172,4.224,1.783,6.414,1.908L63.436,44.93z"/>
	<path fill="#FF0000" stroke="#000000" stroke-miterlimit="10" d="M63.45,31.911c4.132-0.451,8.003-2.783,10.24-6.658
		c3.729-6.457,1.515-14.713-4.94-18.441c-6.459-3.729-14.713-1.516-18.441,4.941c-2.238,3.876-2.322,8.395-0.646,12.199
		L63.45,31.911z"/>
	<path fill="#FF0000" stroke="#000000" stroke-miterlimit="10" d="M49.652,52.893c-1.675,3.805-1.59,8.322,0.646,12.197
		c3.729,6.457,11.986,8.666,18.443,4.938s8.666-11.984,4.937-18.441c-2.237-3.875-6.11-6.207-10.242-6.656L49.652,52.893z"/>
	<path fill="#FFFFFF" stroke="#000000" stroke-miterlimit="10" d="M13.855,31.56c2.637,0.521,12.244-5.03,13.106-7.583
		c1.026-3.024,0.802-6.455-0.919-9.439c-3.178-5.5-10.207-7.384-15.711-4.209c-5.498,3.174-7.383,10.208-4.207,15.708
		C7.849,29.027,10.718,30.938,13.855,31.56z"/>
	<path fill="#FFFFFF" stroke="#000000" stroke-miterlimit="10" d="M26.874,52.902c-0.866-2.545-10.476-8.088-13.118-7.559
		c-3.133,0.625-5.993,2.533-7.716,5.516c-3.176,5.502-1.291,12.535,4.21,15.711c5.498,3.174,12.533,1.291,15.709-4.211
		C27.684,59.371,27.905,55.932,26.874,52.902z"/>
	<circle fill="#0000FF" stroke="#000000" stroke-miterlimit="10" cx="88.501" cy="59.539" r="13"/>
	<path fill="#FFFFFF" stroke="#000000" stroke-miterlimit="10" d="M93.367,36.643c-2.502,2.503-3.606,5.873-3.319,9.142
		c0.228,2.6,7.845,10.215,10.442,10.443c3.27,0.285,6.639-0.818,9.141-3.322c4.492-4.49,4.491-11.771,0.001-16.262
		C105.138,32.152,97.859,32.152,93.367,36.643z"/>
	<path fill="#FFFFFF" stroke="#000000" stroke-miterlimit="10" d="M93.367,80.127c-2.502-2.504-3.606-5.873-3.319-9.143
		c0.228-2.6,7.845-10.215,10.442-10.443c3.27-0.285,6.639,0.818,9.141,3.322c4.492,4.49,4.491,11.771,0.001,16.262
		C105.138,84.617,97.859,84.617,93.367,80.127z"/>
</g>
<g id="circles">
	<circle id="Oxygen-Ion_1_" fill="none" cx="61.993" cy="58.385" r="18.455"/>
	<circle id="Oxygen-Ion" fill="none" cx="61.993" cy="18.455" r="18.456"/>
	<circle id="Carbon-Ion" fill="none" cx="50.589" cy="38.419" r="19.382"/>
	<circle id="Hydrogen_6_" fill="none" cx="16.079" cy="20.19" r="11.404"/>
	<circle id="Hydrogen_5_" fill="none" cx="16.079" cy="56.711" r="11.404"/>
	<circle id="Hydrogen_4_" fill="none" cx="11.999" cy="38.419" r="11.404"/>
	<circle id="Carbon" fill="none" cx="26.516" cy="38.419" r="14.517"/>
	<circle id="Hydrogen-Ion_3_" fill="none" cx="101.501" cy="44.773" r="16.498"/>
	<circle id="Hydrogen-Ion_2_" fill="none" cx="101.501" cy="71.996" r="16.498"/>
	<circle id="Hydrogen-Ion_1_" fill="none" cx="90.758" cy="71.041" r="16.502"/>
	<circle id="Hydrogen-Ion" fill="none" cx="90.758" cy="45.729" r="16.502"/>
	<circle id="Nitrogen-Ion" fill="none" cx="88.501" cy="59.539" r="18.759"/>
</g>
</svg>
