<?xml version="1.0" encoding="UTF-8" standalone="no"?>
<!-- Created with Inkscape (http://www.inkscape.org/) -->

<svg
   xmlns:dc="http://purl.org/dc/elements/1.1/"
   xmlns:cc="http://creativecommons.org/ns#"
   xmlns:rdf="http://www.w3.org/1999/02/22-rdf-syntax-ns#"
   xmlns:svg="http://www.w3.org/2000/svg"
   xmlns="http://www.w3.org/2000/svg"
   version="1.1"
   width="66"
   height="66"
   id="svg2"
   xml:space="preserve"><metadata
     id="metadata8"><rdf:RDF><cc:Work
         rdf:about=""><dc:format>image/svg+xml</dc:format><dc:type
           rdf:resource="http://purl.org/dc/dcmitype/StillImage" /><dc:title></dc:title></cc:Work></rdf:RDF></metadata><defs
     id="defs6"><clipPath
       id="clipPath16"><path
         d="m 0,60.601 89.988,0 L 89.988,0 0,0 0,60.601 z"
         id="path18" /></clipPath><radialGradient
       cx="0"
       cy="0"
       r="1"
       fx="0"
       fy="0"
       id="radialGradient40"
       gradientUnits="userSpaceOnUse"
       gradientTransform="matrix(8.7762299,-8.7762299,-8.7762299,-8.7762299,28.562012,50.060059)"
       spreadMethod="pad"><stop
         id="stop42"
         style="stop-color:#ed1c24;stop-opacity:1"
         offset="0" /><stop
         id="stop44"
         style="stop-color:#550709;stop-opacity:1"
         offset="0.75460798" /><stop
         id="stop46"
         style="stop-color:#ed1c24;stop-opacity:1"
         offset="1" /></radialGradient><radialGradient
       cx="0"
       cy="0"
       r="1"
       fx="0"
       fy="0"
       id="radialGradient62"
       gradientUnits="userSpaceOnUse"
       gradientTransform="matrix(8.776413,-8.776413,-8.776413,-8.776413,41.151367,42.859863)"
       spreadMethod="pad"><stop
         id="stop64"
         style="stop-color:#ed1c24;stop-opacity:1"
         offset="0" /><stop
         id="stop66"
         style="stop-color:#550709;stop-opacity:1"
         offset="0.75460798" /><stop
         id="stop68"
         style="stop-color:#ed1c24;stop-opacity:1"
         offset="1" /></radialGradient><radialGradient
       cx="0"
       cy="0"
       r="1"
       fx="0"
       fy="0"
       id="radialGradient84"
       gradientUnits="userSpaceOnUse"
       gradientTransform="matrix(8.776413,-8.776413,-8.776413,-8.776413,28.561523,21.259277)"
       spreadMethod="pad"><stop
         id="stop86"
         style="stop-color:#ed1c24;stop-opacity:1"
         offset="0" /><stop
         id="stop88"
         style="stop-color:#550709;stop-opacity:1"
         offset="0.75460798" /><stop
         id="stop90"
         style="stop-color:#ed1c24;stop-opacity:1"
         offset="1" /></radialGradient><radialGradient
       cx="0"
       cy="0"
       r="1"
       fx="0"
       fy="0"
       id="radialGradient106"
       gradientUnits="userSpaceOnUse"
       gradientTransform="matrix(8.776413,-8.776413,-8.776413,-8.776413,15.980957,42.859863)"
       spreadMethod="pad"><stop
         id="stop108"
         style="stop-color:#ed1c24;stop-opacity:1"
         offset="0" /><stop
         id="stop110"
         style="stop-color:#550709;stop-opacity:1"
         offset="0.75460798" /><stop
         id="stop112"
         style="stop-color:#ed1c24;stop-opacity:1"
         offset="1" /></radialGradient><radialGradient
       cx="0"
       cy="0"
       r="1"
       fx="0"
       fy="0"
       id="radialGradient128"
       gradientUnits="userSpaceOnUse"
       gradientTransform="matrix(8.776413,-8.776413,-8.776413,-8.776413,3.3583984,50.062012)"
       spreadMethod="pad"><stop
         id="stop130"
         style="stop-color:#ed1c24;stop-opacity:1"
         offset="0" /><stop
         id="stop132"
         style="stop-color:#550709;stop-opacity:1"
         offset="0.75460798" /><stop
         id="stop134"
         style="stop-color:#ed1c24;stop-opacity:1"
         offset="1" /></radialGradient><radialGradient
       cx="0"
       cy="0"
       r="1"
       fx="0"
       fy="0"
       id="radialGradient150"
       gradientUnits="userSpaceOnUse"
       gradientTransform="matrix(8.7709961,-8.7709961,-8.7709961,-8.7709961,41.154297,57.261719)"
       spreadMethod="pad"><stop
         id="stop152"
         style="stop-color:#00adef;stop-opacity:1"
         offset="0" /><stop
         id="stop154"
         style="stop-color:#17194a;stop-opacity:1"
         offset="0.78527802" /><stop
         id="stop156"
         style="stop-color:#2e3192;stop-opacity:1"
         offset="1" /></radialGradient><radialGradient
       cx="0"
       cy="0"
       r="1"
       fx="0"
       fy="0"
       id="radialGradient172"
       gradientUnits="userSpaceOnUse"
       gradientTransform="matrix(8.7709961,-8.7709961,-8.7709961,-8.7709961,28.561035,35.661133)"
       spreadMethod="pad"><stop
         id="stop174"
         style="stop-color:#00adef;stop-opacity:1"
         offset="0" /><stop
         id="stop176"
         style="stop-color:#17194a;stop-opacity:1"
         offset="0.78527802" /><stop
         id="stop178"
         style="stop-color:#2e3192;stop-opacity:1"
         offset="1" /></radialGradient><radialGradient
       cx="0"
       cy="0"
       r="1"
       fx="0"
       fy="0"
       id="radialGradient194"
       gradientUnits="userSpaceOnUse"
       gradientTransform="matrix(8.7709961,-8.7709961,-8.7709961,-8.7709961,41.156738,28.461914)"
       spreadMethod="pad"><stop
         id="stop196"
         style="stop-color:#00adef;stop-opacity:1"
         offset="0" /><stop
         id="stop198"
         style="stop-color:#17194a;stop-opacity:1"
         offset="0.78527802" /><stop
         id="stop200"
         style="stop-color:#2e3192;stop-opacity:1"
         offset="1" /></radialGradient><radialGradient
       cx="0"
       cy="0"
       r="1"
       fx="0"
       fy="0"
       id="radialGradient216"
       gradientUnits="userSpaceOnUse"
       gradientTransform="matrix(8.7709961,-8.7709961,-8.7709961,-8.7709961,15.986328,28.461914)"
       spreadMethod="pad"><stop
         id="stop218"
         style="stop-color:#00adef;stop-opacity:1"
         offset="0" /><stop
         id="stop220"
         style="stop-color:#17194a;stop-opacity:1"
         offset="0.78527802" /><stop
         id="stop222"
         style="stop-color:#2e3192;stop-opacity:1"
         offset="1" /></radialGradient><radialGradient
       cx="0"
       cy="0"
       r="1"
       fx="0"
       fy="0"
       id="radialGradient238"
       gradientUnits="userSpaceOnUse"
       gradientTransform="matrix(8.7709961,-8.7709961,-8.7709961,-8.7709961,15.986328,57.261719)"
       spreadMethod="pad"><stop
         id="stop240"
         style="stop-color:#00adef;stop-opacity:1"
         offset="0" /><stop
         id="stop242"
         style="stop-color:#17194a;stop-opacity:1"
         offset="0.78527802" /><stop
         id="stop244"
         style="stop-color:#2e3192;stop-opacity:1"
         offset="1" /></radialGradient><radialGradient
       cx="0"
       cy="0"
       r="1"
       fx="0"
       fy="0"
       id="radialGradient260"
       gradientUnits="userSpaceOnUse"
       gradientTransform="matrix(8.7709961,-8.7709961,-8.7709961,-8.7709961,3.3642578,35.658203)"
       spreadMethod="pad"><stop
         id="stop262"
         style="stop-color:#00adef;stop-opacity:1"
         offset="0" /><stop
         id="stop264"
         style="stop-color:#17194a;stop-opacity:1"
         offset="0.78527802" /><stop
         id="stop266"
         style="stop-color:#2e3192;stop-opacity:1"
         offset="1" /></radialGradient></defs><g
     transform="matrix(1.25,0,0,-1.25,0,66.000002)"
     id="g10"><g
       transform="translate(0.4,-9)"
       id="g28"><g
         id="g30"><g
           id="g36"><g
             id="g38"><path
               d="m 25.204,46.2 c 0,-3.977 3.222,-7.201 7.2,-7.201 l 0,0 c 3.978,0 7.201,3.224 7.201,7.201 l 0,0 c 0,3.976 -3.223,7.202 -7.201,7.202 l 0,0 c -3.978,0 -7.2,-3.226 -7.2,-7.202"
               id="path48"
               style="fill:url(#radialGradient40);stroke:none" /></g></g></g></g><g
       transform="translate(0.4,-9)"
       id="g50"><g
         id="g52"><g
           id="g58"><g
             id="g60"><path
               d="m 37.793,38.999 c 0,-3.977 3.223,-7.201 7.2,-7.201 l 0,0 c 3.978,0 7.202,3.224 7.202,7.201 l 0,0 c 0,3.977 -3.224,7.202 -7.202,7.202 l 0,0 c -3.977,0 -7.2,-3.225 -7.2,-7.202"
               id="path70"
               style="fill:url(#radialGradient62);stroke:none" /></g></g></g></g><g
       transform="translate(0.4,-9)"
       id="g72"><g
         id="g74"><g
           id="g80"><g
             id="g82"><path
               d="m 25.203,17.399 c 0,-3.977 3.223,-7.202 7.2,-7.202 l 0,0 c 3.978,0 7.202,3.225 7.202,7.202 l 0,0 c 0,3.976 -3.224,7.201 -7.202,7.201 l 0,0 c -3.977,0 -7.2,-3.225 -7.2,-7.201"
               id="path92"
               style="fill:url(#radialGradient84);stroke:none" /></g></g></g></g><g
       transform="translate(0.4,-9)"
       id="g94"><g
         id="g96"><g
           id="g102"><g
             id="g104"><path
               d="m 12.622,38.999 c 0,-3.977 3.223,-7.201 7.2,-7.201 l 0,0 c 3.979,0 7.202,3.224 7.202,7.201 l 0,0 c 0,3.977 -3.223,7.202 -7.202,7.202 l 0,0 c -3.977,0 -7.2,-3.225 -7.2,-7.202"
               id="path114"
               style="fill:url(#radialGradient106);stroke:none" /></g></g></g></g><g
       transform="translate(0.4,-9)"
       id="g116"><g
         id="g118"><g
           id="g124"><g
             id="g126"><path
               d="M 0,46.202 C 0,42.224 3.223,39 7.2,39 l 0,0 c 3.978,0 7.202,3.224 7.202,7.202 l 0,0 c 0,3.976 -3.224,7.2 -7.202,7.2 l 0,0 c -3.977,0 -7.2,-3.224 -7.2,-7.2"
               id="path136"
               style="fill:url(#radialGradient128);stroke:none" /></g></g></g></g><g
       transform="translate(0.4,-9)"
       id="g138"><g
         id="g140"><g
           id="g146"><g
             id="g148"><path
               d="m 44.993,60.601 c -3.975,0 -7.195,-3.223 -7.195,-7.199 l 0,0 c 0,-3.973 3.22,-7.195 7.195,-7.195 l 0,0 c 3.976,0 7.197,3.222 7.197,7.195 l 0,0 c 0,3.976 -3.221,7.199 -7.197,7.199 z"
               id="path158"
               style="fill:url(#radialGradient150);stroke:none" /></g></g></g></g><g
       transform="translate(0.4,-9)"
       id="g160"><g
         id="g162"><g
           id="g168"><g
             id="g170"><path
               d="m 25.204,31.802 c 0,-3.974 3.221,-7.196 7.196,-7.196 l 0,0 c 3.975,0 7.197,3.222 7.197,7.196 l 0,0 C 39.597,35.777 36.375,39 32.4,39 l 0,0 c -3.975,0 -7.196,-3.223 -7.196,-7.198"
               id="path180"
               style="fill:url(#radialGradient172);stroke:none" /></g></g></g></g><g
       transform="translate(0.4,-9)"
       id="g182"><g
         id="g184"><g
           id="g190"><g
             id="g192"><path
               d="m 37.8,24.603 c 0,-3.974 3.22,-7.196 7.195,-7.196 l 0,0 c 3.976,0 7.198,3.222 7.198,7.196 l 0,0 c 0,3.975 -3.222,7.198 -7.198,7.198 l 0,0 c -3.975,0 -7.195,-3.223 -7.195,-7.198"
               id="path202"
               style="fill:url(#radialGradient194);stroke:none" /></g></g></g></g><g
       transform="translate(0.4,-9)"
       id="g204"><g
         id="g206"><g
           id="g212"><g
             id="g214"><path
               d="m 12.63,24.603 c 0,-3.974 3.22,-7.196 7.195,-7.196 l 0,0 c 3.976,0 7.198,3.222 7.198,7.196 l 0,0 c 0,3.975 -3.222,7.198 -7.198,7.198 l 0,0 c -3.975,0 -7.195,-3.223 -7.195,-7.198"
               id="path224"
               style="fill:url(#radialGradient216);stroke:none" /></g></g></g></g><g
       transform="translate(0.4,-9)"
       id="g226"><g
         id="g228"><g
           id="g234"><g
             id="g236"><path
               d="m 19.825,60.601 c -3.975,0 -7.195,-3.223 -7.195,-7.199 l 0,0 c 0,-3.973 3.22,-7.195 7.195,-7.195 l 0,0 c 3.976,0 7.198,3.222 7.198,7.195 l 0,0 c 0,3.976 -3.222,7.199 -7.198,7.199 z"
               id="path246"
               style="fill:url(#radialGradient238);stroke:none" /></g></g></g></g><g
       transform="translate(0.4,-9)"
       id="g248"><g
         id="g250"><g
           id="g256"><g
             id="g258"><path
               d="m 0.008,31.8 c 0,-3.975 3.22,-7.197 7.195,-7.197 l 0,0 c 3.976,0 7.197,3.222 7.197,7.197 l 0,0 c 0,3.974 -3.221,7.197 -7.197,7.197 l 0,0 c -3.975,0 -7.195,-3.223 -7.195,-7.197"
               id="path268"
               style="fill:url(#radialGradient260);stroke:none" /></g></g></g></g></g></svg>