<?xml version="1.0" encoding="utf-8"?>
<!-- Generator: Adobe Illustrator 15.0.2, SVG Export Plug-In . SVG Version: 6.00 Build 0)  -->
<!DOCTYPE svg PUBLIC "-//W3C//DTD SVG 1.1//EN" "http://www.w3.org/Graphics/SVG/1.1/DTD/svg11.dtd">
<svg version="1.1" xmlns="http://www.w3.org/2000/svg" xmlns:xlink="http://www.w3.org/1999/xlink" x="0px" y="0px"
	 width="75.011px" height="76.842px" viewBox="0 0 75.011 76.842" enable-background="new 0 0 75.011 76.842" xml:space="preserve">
<g id="object">
	<g>
		<path fill="#B1B1B1" d="M46.298,27.711c-2.274-3.455-5.595-6.06-9.394-7.501c0.35-3.773-0.446-7.618-2.375-10.958
			C31.235,3.545,25.091,0,18.496,0c-3.232,0-6.427,0.858-9.238,2.481c-4.279,2.47-7.34,6.46-8.62,11.234
			c-1.278,4.773-0.623,9.758,1.848,14.038c1.924,3.333,4.847,5.94,8.281,7.525c-0.169,1.032-0.26,2.081-0.26,3.144
			c0,1.062,0.09,2.11,0.259,3.143c-3.434,1.584-6.357,4.192-8.281,7.525c-2.471,4.279-3.127,9.265-1.849,14.037
			c1.279,4.773,4.34,8.764,8.62,11.234c2.811,1.623,6.005,2.48,9.237,2.481c0,0,0.001,0,0.001,0c6.595,0,12.739-3.546,16.034-9.253
			c1.928-3.339,2.725-7.184,2.374-10.957c3.799-1.441,7.12-4.047,9.395-7.502l0.824-1.251V28.963L46.298,27.711z"/>
		<path fill="#2F2F2F" stroke="#000000" stroke-miterlimit="10" d="M42.122,30.461c-2.449-3.719-6.562-6.23-11.281-6.499
			l-13.776,7.949c-0.987,1.959-1.556,4.166-1.556,6.51s0.569,4.55,1.556,6.509l13.775,7.949c4.719-0.269,8.833-2.779,11.282-6.499
			V30.461z"/>
		<path fill="#FF0000" stroke="#000000" stroke-miterlimit="10" d="M30.84,23.962c1.682-3.806,1.6-8.33-0.641-12.21
			c-3.728-6.456-11.983-8.669-18.441-4.941C5.301,10.539,3.09,18.796,6.817,25.252c2.239,3.878,6.113,6.21,10.248,6.659
			C17.064,31.911,30.563,23.947,30.84,23.962z"/>
		<path fill="#FF0000" stroke="#000000" stroke-miterlimit="10" d="M17.064,44.93c-4.135,0.449-8.009,2.781-10.248,6.659
			C3.089,58.045,5.3,66.302,11.758,70.03c6.457,3.729,14.714,1.516,18.441-4.941c2.24-3.88,2.322-8.403,0.641-12.21L17.064,44.93z"
			/>
		<path fill="#FF0000" stroke="#000000" stroke-miterlimit="10" d="M52.184,24.962c-4.134,0.25-7.758,2.354-10.062,5.499V46.38
			c2.457,3.354,6.412,5.541,10.887,5.541c7.457,0,13.5-6.045,13.5-13.5c0-2.165-0.522-4.203-1.427-6.016L52.184,24.962z"/>
		<path fill="#FFFFFF" stroke="#000000" stroke-miterlimit="10" d="M68.758,11.142c-5.5-3.176-12.534-1.291-15.709,4.209
			c-1.755,3.04-1.958,6.545-0.866,9.611l12.898,7.443c3.2-0.588,6.132-2.516,7.886-5.554C76.144,21.351,74.259,14.317,68.758,11.142
			z"/>
	</g>
</g>
<g id="circles">
	<circle fill="none" cx="18.495" cy="18.495" r="18.495"/>
	<circle fill="none" cx="18.495" cy="58.386" r="18.495"/>
	<circle fill="none" cx="30.034" cy="38.441" r="19.526"/>
	<circle fill="none" cx="53.009" cy="38.441" r="13.48"/>
	<circle fill="none" cx="63.011" cy="21.001" r="11.403"/>
</g>
</svg>
