<?xml version="1.0" encoding="utf-8"?>
<!-- Generator: Adobe Illustrator 15.1.0, SVG Export Plug-In . SVG Version: 6.00 Build 0)  -->
<!DOCTYPE svg PUBLIC "-//W3C//DTD SVG 1.1//EN" "http://www.w3.org/Graphics/SVG/1.1/DTD/svg11.dtd">
<svg version="1.1" xmlns="http://www.w3.org/2000/svg" xmlns:xlink="http://www.w3.org/1999/xlink" x="0px" y="0px"
	 width="123.75px" height="83.35px" viewBox="0 0 123.75 83.35" enable-background="new 0 0 123.75 83.35" xml:space="preserve">
<g id="object">
	<circle fill="#FF00FF" stroke="#000000" stroke-miterlimit="10" cx="61.875" cy="61.725" r="16"/>
	<circle fill="#00FF00" stroke="#000000" stroke-miterlimit="10" cx="102.125" cy="61.725" r="16.5"/>
	<circle fill="#231F20" cx="82" cy="64.725" r="1.5"/>
	<circle fill="#231F20" cx="82" cy="58.725" r="1.5"/>
	<circle fill="#00FF00" stroke="#000000" stroke-miterlimit="10" cx="21.625" cy="61.725" r="16.5"/>
	<circle fill="#231F20" cx="1.5" cy="64.725" r="1.5"/>
	<circle fill="#231F20" cx="1.5" cy="58.725" r="1.5"/>
	<circle fill="#231F20" cx="41.75" cy="64.725" r="1.5"/>
	<circle fill="#231F20" cx="41.75" cy="58.725" r="1.5"/>
	<circle fill="#231F20" cx="18.625" cy="41.6" r="1.5"/>
	<circle fill="#231F20" cx="24.625" cy="41.6" r="1.5"/>
	<circle fill="#231F20" cx="18.625" cy="81.85" r="1.5"/>
	<circle fill="#231F20" cx="24.625" cy="81.85" r="1.5"/>
	<circle fill="#231F20" cx="99.125" cy="41.6" r="1.5"/>
	<circle fill="#231F20" cx="105.125" cy="41.6" r="1.5"/>
	<circle fill="#231F20" cx="99.125" cy="81.85" r="1.5"/>
	<circle fill="#231F20" cx="105.125" cy="81.85" r="1.5"/>
	<circle fill="#231F20" cx="122.25" cy="64.725" r="1.5"/>
	<circle fill="#231F20" cx="122.25" cy="58.725" r="1.5"/>
	<circle fill="#00FF00" stroke="#000000" stroke-miterlimit="10" cx="61.875" cy="21.625" r="16.5"/>
	<circle fill="#231F20" cx="41.75" cy="24.625" r="1.5"/>
	<circle fill="#231F20" cx="41.75" cy="18.625" r="1.5"/>
	<circle fill="#231F20" cx="58.875" cy="1.5" r="1.5"/>
	<circle fill="#231F20" cx="64.875" cy="1.5" r="1.5"/>
	<circle fill="#231F20" cx="58.875" cy="41.75" r="1.5"/>
	<circle fill="#231F20" cx="64.875" cy="41.75" r="1.5"/>
	<circle fill="#231F20" cx="82" cy="24.625" r="1.5"/>
	<circle fill="#231F20" cx="82" cy="18.625" r="1.5"/>
</g>
<g id="circles">
	<circle fill="none" cx="61.875" cy="61.725" r="16"/>
	<circle fill="none" cx="102.125" cy="61.725" r="16.5"/>
	<circle fill="none" cx="82" cy="64.725" r="1.5"/>
	<circle fill="none" cx="82" cy="58.725" r="1.5"/>
	<circle fill="none" cx="21.625" cy="61.725" r="16.5"/>
	<circle fill="none" cx="1.5" cy="64.725" r="1.5"/>
	<circle fill="none" cx="1.5" cy="58.725" r="1.5"/>
	<circle fill="none" cx="41.75" cy="64.725" r="1.5"/>
	<circle fill="none" cx="41.75" cy="58.725" r="1.5"/>
	<circle fill="none" cx="18.625" cy="41.6" r="1.5"/>
	<circle fill="none" cx="24.625" cy="41.6" r="1.5"/>
	<circle fill="none" cx="18.625" cy="81.85" r="1.5"/>
	<circle fill="none" cx="24.625" cy="81.85" r="1.5"/>
	<circle fill="none" cx="99.125" cy="41.6" r="1.5"/>
	<circle fill="none" cx="105.125" cy="41.6" r="1.5"/>
	<circle fill="none" cx="99.125" cy="81.85" r="1.5"/>
	<circle fill="none" cx="105.125" cy="81.85" r="1.5"/>
	<circle fill="none" cx="122.25" cy="64.725" r="1.5"/>
	<circle fill="none" cx="122.25" cy="58.725" r="1.5"/>
	<circle fill="none" cx="61.875" cy="21.625" r="16.5"/>
	<circle fill="none" cx="41.75" cy="24.625" r="1.5"/>
	<circle fill="none" cx="41.75" cy="18.625" r="1.5"/>
	<circle fill="none" cx="58.875" cy="1.5" r="1.5"/>
	<circle fill="none" cx="64.875" cy="1.5" r="1.5"/>
	<circle fill="none" cx="58.875" cy="41.75" r="1.5"/>
	<circle fill="none" cx="64.875" cy="41.75" r="1.5"/>
	<circle fill="none" cx="82" cy="24.625" r="1.5"/>
	<circle fill="none" cx="82" cy="18.625" r="1.5"/>
</g>
</svg>
