<?xml version="1.0" encoding="utf-8"?>
<!-- Generator: Adobe Illustrator 15.0.2, SVG Export Plug-In . SVG Version: 6.00 Build 0)  -->
<!DOCTYPE svg PUBLIC "-//W3C//DTD SVG 1.1//EN" "http://www.w3.org/Graphics/SVG/1.1/DTD/svg11.dtd">
<svg version="1.1" xmlns="http://www.w3.org/2000/svg" xmlns:xlink="http://www.w3.org/1999/xlink" x="0px" y="0px"
	 width="124.004px" height="58.008px" viewBox="0 0 124.004 58.008" style="enable-background:new 0 0 124.004 58.008;"
	 xml:space="preserve">
<g id="object">
	<path style="fill:#B1B1B1;" d="M121.128,18.254c-3.829-6.632-10.97-10.753-18.635-10.753c-3.756,0-7.468,0.997-10.735,2.883
		c-1.833,1.059-3.441,2.356-4.829,3.819C81.722,5.437,72.2,0,61.979,0c-5.064,0-10.07,1.345-14.478,3.889
		c-4.373,2.524-7.926,6.064-10.431,10.292c-1.403-1.47-3.018-2.753-4.826-3.797c-3.268-1.886-6.979-2.883-10.734-2.883
		c-7.665,0-14.806,4.12-18.635,10.752c-5.928,10.267-2.397,23.443,7.869,29.37c3.268,1.887,6.979,2.884,10.735,2.884
		c5.951,0,11.578-2.492,15.592-6.706c5.206,8.769,14.729,14.207,24.953,14.207c5.063,0,10.069-1.345,14.477-3.889
		c4.463-2.576,7.975-6.172,10.428-10.32c4.015,4.216,9.642,6.708,15.593,6.708c3.756,0,7.469-0.997,10.735-2.884
		C123.524,41.695,127.056,28.521,121.128,18.254z"/>
	<circle style="fill:#00FF00;stroke:#000000;stroke-miterlimit:10;" cx="102.508" cy="29.004" r="16.5"/>
	<circle style="fill:#00FF00;stroke:#000000;stroke-miterlimit:10;" cx="21.495" cy="29.004" r="16.5"/>
	<circle style="fill:#FFFFA9;stroke:#000000;stroke-miterlimit:10;" cx="62.002" cy="29.004" r="24"/>
</g>
<g id="outline">
	<path style="fill:none;" d="M121.128,18.254c-3.829-6.632-10.97-10.753-18.635-10.753c-3.756,0-7.468,0.997-10.735,2.883
		c-1.833,1.059-3.441,2.356-4.829,3.819C81.722,5.437,72.2,0,61.979,0c-5.064,0-10.07,1.345-14.478,3.889
		c-4.373,2.524-7.926,6.064-10.431,10.292c-1.403-1.47-3.018-2.753-4.826-3.797c-3.268-1.886-6.979-2.883-10.734-2.883
		c-7.665,0-14.806,4.12-18.635,10.752c-5.928,10.267-2.397,23.443,7.869,29.37c3.268,1.887,6.979,2.884,10.735,2.884
		c5.951,0,11.578-2.492,15.592-6.706c5.206,8.769,14.729,14.207,24.953,14.207c5.063,0,10.069-1.345,14.477-3.889
		c4.463-2.576,7.975-6.172,10.428-10.32c4.015,4.216,9.642,6.708,15.593,6.708c3.756,0,7.469-0.997,10.735-2.884
		C123.524,41.695,127.056,28.521,121.128,18.254z"/>
</g>
</svg>
