<?xml version="1.0" encoding="utf-8"?>
<!-- Generator: Adobe Illustrator 15.0.2, SVG Export Plug-In . SVG Version: 6.00 Build 0)  -->
<!DOCTYPE svg PUBLIC "-//W3C//DTD SVG 1.1//EN" "http://www.w3.org/Graphics/SVG/1.1/DTD/svg11.dtd">
<svg version="1.1" xmlns="http://www.w3.org/2000/svg" xmlns:xlink="http://www.w3.org/1999/xlink" x="0px" y="0px"
	 width="148.418px" height="58.003px" viewBox="0 0 148.418 58.003" enable-background="new 0 0 148.418 58.003"
	 xml:space="preserve">
<g id="object">
	<path fill="#B1B1B1" d="M139.172,23.479c-2.811-1.623-6.005-2.48-9.237-2.48c-1.471,0-2.916,0.186-4.315,0.523
		C124.61,9.486,114.5,0,102.209,0C89.896,0,79.771,9.521,78.793,21.587c-1.485-0.383-3.027-0.589-4.597-0.589
		c-1.546,0-3.082,0.202-4.572,0.584C68.644,9.519,58.521,0,46.209,0c-12.291,0-22.401,9.486-23.41,21.521
		c-1.399-0.337-2.845-0.523-4.315-0.523c-3.232,0-6.427,0.858-9.237,2.481C0.412,28.579-2.626,39.916,2.475,48.75
		c3.295,5.707,9.438,9.252,16.033,9.252c3.232,0,6.427-0.858,9.238-2.481c4.135-2.387,7.116-6.199,8.468-10.758
		C39.249,46.195,42.637,47,46.209,47c3.673,0,7.15-0.848,10.25-2.357c0.406,1.404,0.966,2.785,1.729,4.107
		c3.295,5.707,9.438,9.252,16.033,9.252c3.232,0,6.427-0.858,9.238-2.481c4.17-2.408,7.171-6.264,8.506-10.875
		C95.062,46.153,98.538,47,102.209,47c3.576,0,6.966-0.806,10.003-2.241c1.301,4.383,4.197,8.301,8.46,10.763
		c2.812,1.623,6.006,2.481,9.238,2.481c6.595,0,12.738-3.545,16.033-9.253C151.044,39.917,148.006,28.58,139.172,23.479z"/>
	<circle fill="#FF0000" stroke="#000000" stroke-miterlimit="10" cx="129.922" cy="39.5" r="13.5"/>
	<circle fill="#FF0000" stroke="#000000" stroke-miterlimit="10" cx="74.209" cy="39.5" r="13.5"/>
	<circle fill="#FF0000" stroke="#000000" stroke-miterlimit="10" cx="18.496" cy="39.5" r="13.5"/>
	<circle fill="#A95555" stroke="#000000" stroke-miterlimit="10" cx="102.209" cy="23.5" r="18.5"/>
	<circle fill="#A95555" stroke="#000000" stroke-miterlimit="10" cx="46.209" cy="23.5" r="18.5"/>
</g>
<g id="circles">
	<circle fill="none" cx="18.352" cy="39.651" r="18.352"/>
	<circle fill="none" cx="74.209" cy="39.651" r="18.352"/>
	<circle fill="none" cx="129.921" cy="39.651" r="18.352"/>
	<circle fill="none" cx="102.209" cy="23.5" r="23.495"/>
	<circle fill="none" cx="46.209" cy="23.5" r="23.495"/>
</g>
</svg>
