<?xml version="1.0" encoding="utf-8"?>
<!-- Generator: Adobe Illustrator 15.0.2, SVG Export Plug-In . SVG Version: 6.00 Build 0)  -->
<!DOCTYPE svg PUBLIC "-//W3C//DTD SVG 1.1//EN" "http://www.w3.org/Graphics/SVG/1.1/DTD/svg11.dtd">
<svg version="1.1" xmlns="http://www.w3.org/2000/svg" xmlns:xlink="http://www.w3.org/1999/xlink" x="0px" y="0px"
	 width="143.349px" height="74.259px" viewBox="0 0 143.349 74.259" style="enable-background:new 0 0 143.349 74.259;"
	 xml:space="preserve">
<g id="object">
	<path style="fill:#B1B1B1;" d="M124.849,18.627c-4.086,0-8.005,1.363-11.187,3.782c-0.861-0.604-1.772-1.131-2.724-1.576
		c0.504-3.964-0.276-8.038-2.318-11.575c-3.295-5.708-9.438-9.253-16.033-9.253c-3.232,0-6.427,0.858-9.238,2.481
		c-4.279,2.47-7.341,6.459-8.62,11.232c-0.362,1.352-0.552,2.72-0.606,4.085c-0.808-0.102-1.624-0.172-2.459-0.172
		c-0.833,0-1.648,0.07-2.454,0.172c-0.242-6.138-3.511-12.03-9.213-15.322C57.185,0.858,53.99,0,50.758,0
		C44.163,0,38.02,3.546,34.725,9.253c-2.044,3.542-2.823,7.619-2.317,11.585c-0.951,0.445-1.861,0.971-2.722,1.575
		c-3.181-2.418-7.099-3.781-11.186-3.781c-10.201,0-18.5,8.299-18.5,18.5s8.299,18.5,18.5,18.5c4.086,0,8.004-1.362,11.186-3.781
		c0.861,0.604,1.772,1.131,2.724,1.576c-0.503,3.963,0.276,8.037,2.319,11.574c3.294,5.707,9.438,9.252,16.033,9.253
		c0.001,0,0.001,0,0.002,0c3.231,0,6.426-0.858,9.236-2.481c4.279-2.471,7.341-6.46,8.62-11.232c0.361-1.35,0.552-2.715,0.606-4.077
		c0.8,0.101,1.609,0.169,2.437,0.169c0.841,0,1.663-0.071,2.477-0.175c0.243,6.138,3.512,12.028,9.213,15.32
		c2.811,1.623,6.006,2.481,9.238,2.481c6.594,0,12.738-3.546,16.034-9.254c2.044-3.541,2.822-7.618,2.316-11.584
		c0.95-0.445,1.861-0.972,2.722-1.575c3.181,2.419,7.1,3.781,11.186,3.781c10.201,0,18.5-8.299,18.5-18.5
		S135.05,18.627,124.849,18.627z"/>
	<g>
		<path style="fill:#0000FF;stroke:#000000;stroke-miterlimit:10;" d="M38.526,24.222c-3.672,0.415-6.871,2.362-8.964,5.185v15.45
			c2.092,2.822,5.291,4.771,8.963,5.186l13.396-7.731C52.613,40.723,53,38.974,53,37.132s-0.387-3.591-1.078-5.178L38.526,24.222z"
			/>
		<path style="fill:#FF0000;stroke:#000000;stroke-miterlimit:10;" d="M38.525,50.042c-1.797,3.856-1.755,8.495,0.534,12.459
			c3.728,6.458,11.984,8.67,18.441,4.941c6.457-3.728,8.67-11.983,4.941-18.441c-2.289-3.963-6.283-6.317-10.52-6.69L38.525,50.042z
			"/>
		<path style="fill:#FF0000;stroke:#000000;stroke-miterlimit:10;" d="M29.562,29.406c-2.44-3.488-6.481-5.774-11.062-5.774
			c-7.458,0-13.5,6.044-13.5,13.5s6.043,13.5,13.5,13.5c4.58,0,8.621-2.287,11.062-5.775V29.406z"/>
		<path style="fill:#FF0000;stroke:#000000;stroke-miterlimit:10;" d="M51.906,31.946c4.24-0.369,8.24-2.727,10.531-6.693
			c3.729-6.458,1.516-14.713-4.941-18.441s-14.713-1.517-18.441,4.941c-2.29,3.967-2.33,8.61-0.529,12.468L51.906,31.946z"/>
	</g>
	<g>
		<path style="fill:#0000FF;stroke:#000000;stroke-miterlimit:10;" d="M104.823,50.037c3.672-0.415,6.871-2.362,8.963-5.185v-15.45
			c-2.092-2.822-5.291-4.771-8.963-5.186l-13.396,7.731c-0.691,1.588-1.078,3.337-1.078,5.179s0.387,3.591,1.078,5.178
			L104.823,50.037z"/>
		<path style="fill:#FF0000;stroke:#000000;stroke-miterlimit:10;" d="M104.823,24.217c1.797-3.856,1.756-8.495-0.533-12.459
			c-3.729-6.458-11.984-8.67-18.441-4.941c-6.457,3.728-8.67,11.983-4.941,18.441c2.289,3.963,6.283,6.317,10.52,6.69
			L104.823,24.217z"/>
		<path style="fill:#FF0000;stroke:#000000;stroke-miterlimit:10;" d="M113.786,44.853c2.441,3.488,6.482,5.774,11.062,5.774
			c7.457,0,13.5-6.044,13.5-13.5s-6.043-13.5-13.5-13.5c-4.58,0-8.621,2.287-11.062,5.775V44.853z"/>
		<path style="fill:#FF0000;stroke:#000000;stroke-miterlimit:10;" d="M91.442,42.312c-4.24,0.369-8.24,2.727-10.531,6.693
			c-3.729,6.458-1.516,14.713,4.941,18.441s14.713,1.517,18.441-4.941c2.289-3.967,2.33-8.61,0.529-12.468L91.442,42.312z"/>
	</g>
	<circle style="fill:#A95500;stroke:#000000;stroke-miterlimit:10;" cx="71.663" cy="37.132" r="14.5"/>
</g>
<g id="outline">
	<path style="fill:none;" d="M124.849,18.627c-4.086,0-8.005,1.363-11.187,3.782c-0.861-0.604-1.772-1.131-2.724-1.576
		c0.504-3.964-0.276-8.038-2.318-11.575c-3.295-5.708-9.438-9.253-16.033-9.253c-3.232,0-6.427,0.858-9.238,2.481
		c-4.279,2.47-7.341,6.459-8.62,11.232c-0.362,1.352-0.552,2.72-0.606,4.085c-0.808-0.102-1.624-0.172-2.459-0.172
		c-0.833,0-1.648,0.07-2.454,0.172c-0.242-6.138-3.511-12.03-9.213-15.322C57.185,0.858,53.99,0,50.758,0
		C44.163,0,38.02,3.546,34.725,9.253c-2.044,3.542-2.823,7.619-2.317,11.585c-0.951,0.445-1.861,0.971-2.722,1.575
		c-3.181-2.418-7.099-3.781-11.186-3.781c-10.201,0-18.5,8.299-18.5,18.5s8.299,18.5,18.5,18.5c4.086,0,8.004-1.362,11.186-3.781
		c0.861,0.604,1.772,1.131,2.724,1.576c-0.503,3.963,0.276,8.037,2.319,11.574c3.294,5.707,9.438,9.252,16.033,9.253
		c0.001,0,0.001,0,0.002,0c3.231,0,6.426-0.858,9.236-2.481c4.279-2.471,7.341-6.46,8.62-11.232c0.361-1.35,0.552-2.715,0.606-4.077
		c0.8,0.101,1.609,0.169,2.437,0.169c0.841,0,1.663-0.071,2.477-0.175c0.243,6.138,3.512,12.028,9.213,15.32
		c2.811,1.623,6.006,2.481,9.238,2.481c6.594,0,12.738-3.546,16.034-9.254c2.044-3.541,2.822-7.618,2.316-11.584
		c0.95-0.445,1.861-0.972,2.722-1.575c3.181,2.419,7.1,3.781,11.186,3.781c10.201,0,18.5-8.299,18.5-18.5
		S135.05,18.627,124.849,18.627z"/>
</g>
</svg>
