<?xml version="1.0" encoding="utf-8"?>
<!-- Generator: Adobe Illustrator 15.0.2, SVG Export Plug-In . SVG Version: 6.00 Build 0)  -->
<!DOCTYPE svg PUBLIC "-//W3C//DTD SVG 1.1//EN" "http://www.w3.org/Graphics/SVG/1.1/DTD/svg11.dtd">
<svg version="1.1" xmlns="http://www.w3.org/2000/svg" xmlns:xlink="http://www.w3.org/1999/xlink" x="0px" y="0px"
	 width="93.364px" height="79.44px" viewBox="0 0 93.364 79.44" enable-background="new 0 0 93.364 79.44" xml:space="preserve">
<g id="object">
	<path fill="#B1B1B1" d="M90.553,35.457c-1.644-2.635-3.873-4.767-6.496-6.266c-0.27-1.311-0.669-2.604-1.228-3.855
		c-2.97-6.663-9.604-10.968-16.902-10.968c-2.604,0-5.137,0.541-7.529,1.608c-0.438,0.195-0.852,0.419-1.267,0.644
		c-0.259-2.572-1.056-5.086-2.372-7.367C51.464,3.545,45.321,0,38.726,0c-3.232,0-6.427,0.858-9.238,2.481
		c-6.46,3.73-9.802,10.793-9.147,17.775c-0.281-0.012-0.557-0.042-0.84-0.042c-10.752,0-19.5,8.748-19.5,19.5s8.748,19.5,19.5,19.5
		c0.284,0,0.56-0.031,0.841-0.042c-0.66,6.986,2.683,14.056,9.146,17.788c2.811,1.623,6.006,2.481,9.238,2.481
		c6.595,0,12.739-3.545,16.034-9.253c1.657-2.871,2.486-6.114,2.461-9.375c1.659-0.49,3.264-1.17,4.768-2.039
		c0.056-0.032,0.105-0.071,0.16-0.104c2.367,2.247,5.304,3.854,8.535,4.603c1.376,0.319,2.785,0.481,4.189,0.481
		c8.65,0,16.056-5.893,18.007-14.328C93.996,44.611,93.169,39.65,90.553,35.457z"/>
	<path fill="#FF0000" stroke="#000000" stroke-miterlimit="10" d="M71.435,45.201c-6.807,3.037-14.79-0.02-17.828-6.83
		c-3.037-6.809,0.021-14.792,6.828-17.829c6.81-3.037,14.793,0.02,17.828,6.829C81.303,34.183,78.248,42.164,71.435,45.201z"/>
	<g>
		<path fill="#FFFF00" stroke="#000000" stroke-miterlimit="10" d="M42.489,24.998c-7.97,4.602-10.787,14.678-6.474,22.733
			l15.527,8.98c2.709-0.086,5.436-0.818,7.945-2.267c8.133-4.695,10.917-15.091,6.223-23.223
			C61.018,23.089,50.619,20.304,42.489,24.998z"/>
		<path fill="#FF0000" stroke="#000000" stroke-miterlimit="10" d="M36.015,47.73c-3.643,0.753-6.963,2.983-8.969,6.458
			c-3.729,6.458-1.516,14.713,4.941,18.441s14.713,1.517,18.441-4.941c2.002-3.468,2.276-7.452,1.113-10.978L36.015,47.73z"/>
	</g>
	<g>
		<path fill="#FF0000" stroke="#000000" stroke-miterlimit="10" d="M77.903,32.097c-3.901-0.903-7.792-0.002-10.826,2.14
			c-2.612,1.845-5.587,14.669-4.056,17.472c1.782,3.264,4.885,5.788,8.791,6.693c7.264,1.684,14.516-2.84,16.196-10.105
			C89.693,41.032,85.167,33.78,77.903,32.097z"/>
		<path fill="#FF0000" stroke="#000000" stroke-miterlimit="10" d="M31.988,6.811c-6.457,3.728-8.67,11.983-4.941,18.441
			c2.005,3.473,5.324,5.705,8.966,6.457c3.128,0.646,14.521-5.932,15.525-8.964c1.169-3.53,0.896-7.52-1.108-10.993
			C46.701,5.294,38.445,3.083,31.988,6.811z"/>
	</g>
	<circle fill="#00A9FF" stroke="#000000" stroke-miterlimit="10" cx="19.5" cy="39.714" r="14.5"/>
</g>
<g id="circles">
	<circle fill="none" cx="19.5" cy="39.714" r="19.477"/>
	<circle fill="none" cx="65.937" cy="32.872" r="18.503"/>
	<circle fill="none" cx="74.856" cy="45.251" r="18.49"/>
	<circle fill="none" cx="38.732" cy="61.085" r="18.355"/>
	<circle fill="none" cx="38.732" cy="18.376" r="18.469"/>
	<circle fill="none" cx="50.996" cy="39.685" r="22.032"/>
</g>
</svg>
