<?xml version="1.0" encoding="utf-8"?>
<!-- Generator: Adobe Illustrator 15.0.2, SVG Export Plug-In . SVG Version: 6.00 Build 0)  -->
<!DOCTYPE svg PUBLIC "-//W3C//DTD SVG 1.1//EN" "http://www.w3.org/Graphics/SVG/1.1/DTD/svg11.dtd">
<svg version="1.1" xmlns="http://www.w3.org/2000/svg" xmlns:xlink="http://www.w3.org/1999/xlink" x="0px" y="0px"
	 width="84.011px" height="39.005px" viewBox="0 0 84.011 39.005" enable-background="new 0 0 84.011 39.005" xml:space="preserve">
<g id="object">
	<path fill="#B1B1B1" d="M67.511,3.002c-2.931,0-5.763,0.789-8.242,2.224C56,2.529,51.867,1.002,47.511,1.002
		c-5.229,0-9.948,2.19-13.316,5.689c-1.396-1.598-3.045-2.985-4.937-4.077C26.295,0.904,22.928,0,19.521,0
		c-6.952,0-13.428,3.737-16.9,9.752c-2.604,4.51-3.296,9.765-1.948,14.796c1.348,5.032,4.574,9.237,9.085,11.841
		c2.963,1.71,6.329,2.615,9.735,2.615c5.68,0,11.039-2.496,14.705-6.688c3.368,3.497,8.086,5.685,13.312,5.685
		c4.355,0,8.487-1.527,11.757-4.224c2.48,1.436,5.312,2.224,8.243,2.224c9.099,0,16.5-7.402,16.5-16.5S76.609,3.002,67.511,3.002z"
		/>
	<circle fill="#A900FF" stroke="#000000" stroke-miterlimit="10" cx="19.508" cy="19.502" r="14.5"/>
	<path fill="#FFFFFF" stroke="#000000" stroke-miterlimit="10" d="M67.511,8.002c-3.505,0-6.639,1.573-8.748,4.046v14.907
		c2.109,2.474,5.243,4.047,8.748,4.047c6.351,0,11.5-5.148,11.5-11.5C79.011,13.151,73.861,8.002,67.511,8.002z"/>
	<path fill="#FF0000" stroke="#000000" stroke-miterlimit="10" d="M58.763,12.049c-2.417-3.643-6.552-6.047-11.252-6.047
		c-7.456,0-13.5,6.043-13.5,13.5c0,7.456,6.044,13.5,13.5,13.5c4.699,0,8.834-2.404,11.252-6.047V12.049z"/>
</g>
<g id="circles">
	<circle id="Lithium-Ion" fill="none" cx="19.502" cy="19.502" r="19.502"/>
	<circle id="Oxygen-Ion" fill="none" cx="47.511" cy="19.484" r="18.481"/>
	<circle id="Hydrogen-Ion" fill="none" cx="67.51" cy="19.502" r="16.5"/>
</g>
</svg>
