<?xml version="1.0" encoding="utf-8"?>
<!-- Generator: Adobe Illustrator 15.0.2, SVG Export Plug-In . SVG Version: 6.00 Build 0)  -->
<!DOCTYPE svg PUBLIC "-//W3C//DTD SVG 1.1//EN" "http://www.w3.org/Graphics/SVG/1.1/DTD/svg11.dtd">
<svg version="1.1" xmlns="http://www.w3.org/2000/svg" xmlns:xlink="http://www.w3.org/1999/xlink" x="0px" y="0px"
	 width="91.238px" height="74.254px" viewBox="0 0 91.238 74.254" enable-background="new 0 0 91.238 74.254" xml:space="preserve">
<g id="object">
	<path fill="#B1B1B1" d="M72.738,18.622c-4.086,0-8.005,1.362-11.187,3.781c-0.86-0.604-1.772-1.131-2.724-1.576
		c0.504-3.964-0.275-8.038-2.318-11.575C53.214,3.545,47.071,0,40.476,0c-3.232,0-6.427,0.858-9.238,2.481
		c-5.704,3.293-8.972,9.188-9.213,15.328c-0.829-0.108-1.667-0.183-2.525-0.183c-10.752,0-19.5,8.748-19.5,19.5
		c0,10.752,8.748,19.5,19.5,19.5c0.859,0,1.699-0.075,2.529-0.184c0.241,6.141,3.509,12.036,9.212,15.329
		c2.811,1.623,6.006,2.481,9.239,2.481c6.594,0,12.738-3.546,16.034-9.254c2.044-3.541,2.822-7.618,2.316-11.584
		c0.95-0.445,1.861-0.972,2.722-1.575c3.181,2.419,7.1,3.781,11.186,3.781c10.201,0,18.5-8.299,18.5-18.5
		S82.939,18.622,72.738,18.622z"/>
	<g>
		<path fill="#0000FF" stroke="#000000" stroke-miterlimit="10" d="M52.712,50.032c3.672-0.415,6.871-2.362,8.963-5.185V29.396
			c-2.092-2.822-5.291-4.77-8.963-5.185l-13.396,7.732c-0.691,1.588-1.078,3.337-1.078,5.179s0.387,3.591,1.078,5.178L52.712,50.032
			z"/>
		<path fill="#FF0000" stroke="#000000" stroke-miterlimit="10" d="M52.712,24.211c1.797-3.856,1.756-8.495-0.533-12.458
			c-3.729-6.458-11.984-8.67-18.441-4.942s-8.67,11.983-4.941,18.442c2.289,3.962,6.283,6.317,10.52,6.69L52.712,24.211z"/>
		<path fill="#FF0000" stroke="#000000" stroke-miterlimit="10" d="M61.675,44.848c2.441,3.488,6.482,5.774,11.062,5.774
			c7.457,0,13.5-6.044,13.5-13.5s-6.043-13.5-13.5-13.5c-4.58,0-8.621,2.287-11.062,5.774V44.848z"/>
		<path fill="#FF0000" stroke="#000000" stroke-miterlimit="10" d="M39.332,42.308c-4.24,0.369-8.24,2.727-10.531,6.693
			c-3.729,6.458-1.516,14.713,4.941,18.441s14.713,1.517,18.441-4.941c2.289-3.967,2.33-8.61,0.529-12.468L39.332,42.308z"/>
	</g>
	<circle fill="#A900FF" stroke="#000000" stroke-miterlimit="10" cx="19.5" cy="37.127" r="14.5"/>
</g>
<g id="circles">
	<circle id="Lithium-Ion" fill="none" cx="19.5" cy="37.127" r="19.429"/>
	<circle id="Oxygen-Ion_2_" fill="none" cx="72.583" cy="37.126" r="18.654"/>
	<circle id="Oxygen-Ion_1_" fill="none" cx="40.489" cy="55.564" r="18.654"/>
	<circle id="Oxygen-Ion" fill="none" cx="40.489" cy="18.689" r="18.654"/>
	<circle id="Nitrogen-Ion" fill="none" cx="50.214" cy="37.127" r="18.438"/>
</g>
</svg>
