<?xml version="1.0" encoding="utf-8"?>
<!-- Generator: Adobe Illustrator 15.0.2, SVG Export Plug-In . SVG Version: 6.00 Build 0)  -->
<!DOCTYPE svg PUBLIC "-//W3C//DTD SVG 1.1//EN" "http://www.w3.org/Graphics/SVG/1.1/DTD/svg11.dtd">
<svg version="1.1" xmlns="http://www.w3.org/2000/svg" xmlns:xlink="http://www.w3.org/1999/xlink" x="0px" y="0px" width="85px"
	 height="52px" viewBox="0 0 85 52" enable-background="new 0 0 85 52" xml:space="preserve">
<g id="object">
	<path fill="#B1B1B1" d="M63.5,4.5c-6.297,0-11.952,2.738-15.888,7.065C42.943,4.597,35,0,26,0C11.664,0,0,11.664,0,26
		s11.664,26,26,26c9,0,16.943-4.597,21.612-11.565C51.548,44.762,57.203,47.5,63.5,47.5C75.355,47.5,85,37.855,85,26
		S75.355,4.5,63.5,4.5z"/>
	<circle fill="#A900FF" stroke="#000000" stroke-miterlimit="10" cx="26" cy="26" r="21"/>
	<circle fill="#00FF00" stroke="#000000" stroke-miterlimit="10" cx="63.5" cy="26" r="16.5"/>
</g>
<g id="circles">
	<circle id="Lithium-Ion" fill="none" cx="26" cy="26" r="26"/>
	<circle id="Chlorine-Ion" fill="none" cx="63.5" cy="26" r="21.5"/>
</g>
</svg>
