<?xml version="1.0" encoding="utf-8"?>
<!-- Generator: Adobe Illustrator 15.0.2, SVG Export Plug-In . SVG Version: 6.00 Build 0)  -->
<!DOCTYPE svg PUBLIC "-//W3C//DTD SVG 1.1//EN" "http://www.w3.org/Graphics/SVG/1.1/DTD/svg11.dtd">
<svg version="1.1" xmlns="http://www.w3.org/2000/svg" xmlns:xlink="http://www.w3.org/1999/xlink" x="0px" y="0px"
	 width="104.471px" height="79.44px" viewBox="0 0 104.471 79.44" enable-background="new 0 0 104.471 79.44" xml:space="preserve">
<g id="object">
	<path fill="#B1B1B1" d="M71.305,53.335L52.833,42.654C52.94,41.69,53,40.711,53,39.72c0-1.018-0.063-2.021-0.176-3.009
		c5.548-0.55,17.298-7.039,19.071-12.395C73.557,19.3,73.001,13.81,70.37,9.252C67.075,3.545,60.932,0,54.336,0
		c-3.232,0-6.427,0.858-9.238,2.481c-4.846,2.798-7.934,7.475-8.905,12.583c-3.005-1.186-6.273-1.845-9.694-1.845
		C11.888,13.22,0,25.108,0,39.72s11.888,26.5,26.5,26.5c3.418,0,6.684-0.658,9.687-1.842c0.086,0.45,0.172,0.901,0.292,1.349
		c1.279,4.772,4.341,8.762,8.62,11.232c2.812,1.623,6.006,2.48,9.238,2.48c6.594,0,12.739-3.545,16.034-9.252
		c2.627-4.55,3.185-10.033,1.531-15.044L71.305,53.335z"/>
	<circle fill="#555500" stroke="#000000" stroke-miterlimit="10" cx="26.5" cy="39.72" r="21.5"/>
	<path fill="#FF0000" stroke="#000000" stroke-miterlimit="10" d="M51.626,47.731c-3.643,0.753-6.963,2.982-8.969,6.457
		c-3.729,6.458-1.516,14.714,4.941,18.441s14.713,1.517,18.441-4.941c2.002-3.468,2.276-7.452,1.113-10.978L51.626,47.731z"/>
	<path fill="#FF0000" stroke="#000000" stroke-miterlimit="10" d="M87.046,45.201c-6.807,3.037-14.79-0.02-17.828-6.829
		c-3.037-6.809,0.021-14.792,6.828-17.829c6.81-3.037,14.793,0.02,17.828,6.829C96.914,34.183,93.858,42.164,87.046,45.201z"/>
	<path fill="#FFFF00" stroke="#000000" stroke-miterlimit="10" d="M58.1,24.998c-7.97,4.602-10.787,14.678-6.474,22.733
		l15.527,8.979c2.709-0.086,5.436-0.818,7.945-2.268c8.133-4.695,10.917-15.091,6.223-23.223
		C76.629,23.089,66.229,20.304,58.1,24.998z"/>
	<path fill="#FF0000" stroke="#000000" stroke-miterlimit="10" d="M93.514,32.097c-3.901-0.903-7.792-0.002-10.826,2.14
		c-2.612,1.845-5.587,14.669-4.056,17.472c1.782,3.264,4.885,5.788,8.791,6.693c7.264,1.684,14.516-2.841,16.196-10.105
		C105.304,41.033,100.778,33.781,93.514,32.097z"/>
	<path fill="#FF0000" stroke="#000000" stroke-miterlimit="10" d="M47.599,6.811c-6.457,3.728-8.67,11.983-4.941,18.441
		c2.005,3.474,5.324,5.704,8.966,6.457c3.128,0.646,14.521-5.933,15.525-8.964c1.169-3.53,0.896-7.52-1.108-10.993
		C62.312,5.294,54.056,3.083,47.599,6.811z"/>
</g>
<g id="circles">
	<circle fill="none" cx="26.499" cy="39.714" r="26.494"/>
	<circle fill="none" cx="54.344" cy="18.456" r="18.455"/>
	<circle fill="none" cx="54.344" cy="61.085" r="18.455"/>
	<circle fill="none" cx="66.606" cy="39.72" r="16.996"/>
	<circle fill="none" cx="90.497" cy="45.251" r="13.474"/>
	<circle fill="none" cx="81.546" cy="32.872" r="13.474"/>
</g>
</svg>
