<?xml version="1.0" encoding="utf-8"?>
<!-- Generator: Adobe Illustrator 15.0.2, SVG Export Plug-In . SVG Version: 6.00 Build 0)  -->
<!DOCTYPE svg PUBLIC "-//W3C//DTD SVG 1.1//EN" "http://www.w3.org/Graphics/SVG/1.1/DTD/svg11.dtd">
<svg version="1.1" xmlns="http://www.w3.org/2000/svg" xmlns:xlink="http://www.w3.org/1999/xlink" x="0px" y="0px" width="100px"
	 height="46px" viewBox="0 0 100 46" style="enable-background:new 0 0 100 46;" xml:space="preserve">
<g id="object">
	<path style="fill:#B1B1B1;" d="M81.5,5.5c-4.751,0-9.076,1.816-12.356,4.771C65.018,4.084,57.978,0,50,0
		S34.982,4.084,30.856,10.271C27.576,7.316,23.251,5.5,18.5,5.5C8.299,5.5,0,13.799,0,24s8.299,18.5,18.5,18.5
		c5.173,0,9.851-2.14,13.211-5.574C35.917,42.436,42.549,46,50,46s14.083-3.564,18.289-9.074C71.649,40.36,76.327,42.5,81.5,42.5
		c10.201,0,18.5-8.299,18.5-18.5S91.701,5.5,81.5,5.5z"/>
	<circle style="fill:#FF0000;stroke:#000000;stroke-miterlimit:10;" cx="18.5" cy="24" r="13.5"/>
	<circle style="fill:#FF0000;stroke:#000000;stroke-miterlimit:10;" cx="81.5" cy="24" r="13.5"/>
	<circle style="fill:#A9A955;stroke:#000000;stroke-miterlimit:10;" cx="50" cy="23" r="18"/>
</g>
<g id="outline">
	<path style="fill:none;" d="M81.5,5.5c-4.751,0-9.076,1.816-12.356,4.771C65.018,4.084,57.978,0,50,0S34.982,4.084,30.856,10.271
		C27.576,7.316,23.251,5.5,18.5,5.5C8.299,5.5,0,13.799,0,24s8.299,18.5,18.5,18.5c5.173,0,9.851-2.14,13.211-5.574
		C35.917,42.436,42.549,46,50,46s14.083-3.564,18.289-9.074C71.649,40.36,76.327,42.5,81.5,42.5c10.201,0,18.5-8.299,18.5-18.5
		S91.701,5.5,81.5,5.5z"/>
</g>
</svg>
