<?xml version="1.0" encoding="utf-8"?>
<!-- Generator: Adobe Illustrator 15.0.2, SVG Export Plug-In . SVG Version: 6.00 Build 0)  -->
<!DOCTYPE svg PUBLIC "-//W3C//DTD SVG 1.1//EN" "http://www.w3.org/Graphics/SVG/1.1/DTD/svg11.dtd">
<svg version="1.1" xmlns="http://www.w3.org/2000/svg" xmlns:xlink="http://www.w3.org/1999/xlink" x="0px" y="0px"
	 width="112.185px" height="46px" viewBox="0 0 112.185 46" style="enable-background:new 0 0 112.185 46;" xml:space="preserve">
<g id="object">
	<path style="fill:#B1B1B1;" d="M90.685,1.5c-6.557,0-12.428,2.958-16.375,7.601C70.105,3.576,63.464,0,56,0
		c-7.414,0-14.016,3.529-18.225,8.992C33.83,4.415,28.004,1.5,21.5,1.5C9.645,1.5,0,11.145,0,23s9.645,21.5,21.5,21.5
		c6.504,0,12.33-2.914,16.275-7.492C41.984,42.47,48.586,46,56,46c7.464,0,14.105-3.576,18.31-9.101
		c3.947,4.643,9.818,7.601,16.375,7.601c11.855,0,21.5-9.645,21.5-21.5S102.54,1.5,90.685,1.5z"/>
	<circle style="fill:#00FF00;stroke:#000000;stroke-miterlimit:10;" cx="90.685" cy="23" r="16.5"/>
	<circle style="fill:#00FF00;stroke:#000000;stroke-miterlimit:10;" cx="21.5" cy="23" r="16.5"/>
	<circle style="fill:#A9A955;stroke:#000000;stroke-miterlimit:10;" cx="56" cy="23" r="18"/>
</g>
<g id="outline">
	<path style="fill:none;" d="M90.685,1.5c-6.557,0-12.428,2.958-16.375,7.601C70.105,3.576,63.464,0,56,0
		c-7.414,0-14.016,3.529-18.225,8.992C33.83,4.415,28.004,1.5,21.5,1.5C9.645,1.5,0,11.145,0,23s9.645,21.5,21.5,21.5
		c6.504,0,12.33-2.914,16.275-7.492C41.984,42.47,48.586,46,56,46c7.464,0,14.105-3.576,18.31-9.101
		c3.947,4.643,9.818,7.601,16.375,7.601c11.855,0,21.5-9.645,21.5-21.5S102.54,1.5,90.685,1.5z"/>
</g>
</svg>
