<?xml version="1.0" encoding="utf-8"?>
<!-- Generator: Adobe Illustrator 15.0.2, SVG Export Plug-In . SVG Version: 6.00 Build 0)  -->
<!DOCTYPE svg PUBLIC "-//W3C//DTD SVG 1.1//EN" "http://www.w3.org/Graphics/SVG/1.1/DTD/svg11.dtd">
<svg version="1.1" xmlns="http://www.w3.org/2000/svg" xmlns:xlink="http://www.w3.org/1999/xlink" x="0px" y="0px"
	 width="56.081px" height="57.498px" viewBox="0 0 56.081 57.498" style="enable-background:new 0 0 56.081 57.498;"
	 xml:space="preserve">
<g id="object">
	<circle style="fill:#FFFFFF;stroke:#000000;stroke-miterlimit:10;" cx="43.323" cy="34.002" r="11.5"/>
	<path style="fill:#FFFFFF;stroke:#000000;stroke-miterlimit:10;" d="M6.253,32.041c-5.501,3.175-7.386,10.208-4.209,15.71
		c3.175,5.499,10.208,7.384,15.71,4.209c2.718-1.57,4.549-4.084,5.327-6.888l-8.2-14.202C12.063,30.142,8.971,30.471,6.253,32.041z"
		/>
	<path style="fill:#2F2F2F;stroke:#000000;stroke-miterlimit:10;" d="M29.323,17.5c-7.626,0-13.865,5.892-14.443,13.371l8.2,14.202
		c1.893,0.906,4.004,1.428,6.243,1.428c8.01,0,14.5-6.492,14.5-14.5C43.823,23.991,37.333,17.5,29.323,17.5z"/>
	<path style="fill:#FFFFFF;stroke:#000000;stroke-miterlimit:10;" d="M51.841,37.01c-2.316-2.118-5.266-3.105-8.174-3
		c-2.974,0.107-11.225,9.131-11.065,12.104c0.155,2.904,1.401,5.751,3.718,7.868c4.687,4.289,11.961,3.964,16.247-0.724
		C56.853,48.573,56.53,41.298,51.841,37.01z"/>
	<path style="fill:#FFFFFF;stroke:#000000;stroke-miterlimit:10;" d="M29.322,0.5c-6.351,0-11.5,5.148-11.5,11.5
		c0,3.141,1.262,5.984,3.303,8.06c2.086,2.122,14.316,2.117,16.403-0.01c2.035-2.075,3.294-4.914,3.294-8.05
		C40.823,5.648,35.674,0.5,29.322,0.5z"/>
</g>
<g id="outline">
	<path style="fill:none;" d="M53.622,39.096c0.761-1.537,1.201-3.262,1.201-5.094c0-6.351-5.148-11.5-11.5-11.5
		c-0.952,0-1.872,0.128-2.757,0.347c-0.873-1.071-1.896-2.014-3.037-2.799c2.035-2.075,3.294-4.914,3.294-8.05
		c0-6.352-5.148-11.5-11.5-11.5c-6.351,0-11.5,5.148-11.5,11.5c0,3.141,1.262,5.984,3.303,8.06
		c-3.503,2.415-5.898,6.321-6.246,10.811c-2.817-0.729-5.909-0.399-8.627,1.17c-5.501,3.175-7.386,10.208-4.209,15.71
		c3.175,5.499,10.208,7.384,15.71,4.209c2.718-1.57,4.549-4.084,5.327-6.888c1.893,0.906,4.004,1.428,6.243,1.428
		c1.13,0,2.224-0.142,3.279-0.386l0,0c0.155,2.904,1.401,5.751,3.718,7.868c4.687,4.289,11.961,3.964,16.247-0.724
		C56.219,49.266,56.513,43.398,53.622,39.096z"/>
</g>
</svg>
