<?xml version="1.0" encoding="utf-8"?>
<!-- Generator: Adobe Illustrator 15.0.2, SVG Export Plug-In . SVG Version: 6.00 Build 0)  -->
<!DOCTYPE svg PUBLIC "-//W3C//DTD SVG 1.1//EN" "http://www.w3.org/Graphics/SVG/1.1/DTD/svg11.dtd">
<svg version="1.1" xmlns="http://www.w3.org/2000/svg" xmlns:xlink="http://www.w3.org/1999/xlink" x="0px" y="0px"
	 width="204.841px" height="77.75px" viewBox="0 0 204.841 77.75" style="enable-background:new 0 0 204.841 77.75;"
	 xml:space="preserve">
<g id="object">
	<path style="fill:#FFFFFF;stroke:#000000;stroke-miterlimit:10;" d="M59.427,73.795c-5.5-3.176-7.385-10.21-4.209-15.71
		c1.738-3.011,4.635-4.93,7.802-5.537c2.617-0.501,12.144,5.004,13.017,7.528c1.051,3.043,0.836,6.503-0.9,9.509
		C71.961,75.085,64.928,76.971,59.427,73.795z"/>
	<path style="fill:#FFFFFF;stroke:#000000;stroke-miterlimit:10;" d="M61.821,4.832c5.5,3.176,7.385,10.21,4.209,15.71
		c-1.738,3.011-4.635,4.93-7.802,5.537c-2.617,0.501-12.144-5.004-13.017-7.528c-1.051-3.043-0.836-6.503,0.9-9.509
		C49.287,3.542,56.32,1.656,61.821,4.832z"/>
	<circle style="fill:#FFFFFF;stroke:#000000;stroke-miterlimit:10;" cx="16" cy="51.375" r="11.5"/>
	<path style="fill:#2F2F2F;stroke:#000000;stroke-miterlimit:10;" d="M35.826,31.826c-4.178-2.021-9.251-2.006-13.573,0.49
		c-6.936,4.004-9.312,12.873-5.309,19.807c4.004,6.936,12.872,9.312,19.809,5.309c4.322-2.495,6.872-6.881,7.211-11.51
		L35.826,31.826z"/>
	<path style="fill:#2F2F2F;stroke:#000000;stroke-miterlimit:10;" d="M64.737,31.852c-0.149-2.129-0.755-4.257-1.894-6.229
		c-4.003-6.934-12.872-9.311-19.807-5.307c-4.322,2.495-6.871,6.881-7.211,11.51l8.138,14.096c3.89,1.881,8.549,1.982,12.661-0.022
		L64.737,31.852z"/>
	<path style="fill:#2F2F2F;stroke:#000000;stroke-miterlimit:10;" d="M77.397,31.828c-3.889-1.881-8.548-1.982-12.66,0.023
		l-8.112,14.048c0.148,2.127,0.754,4.255,1.892,6.226c4.005,6.936,12.873,9.312,19.809,5.309c4.322-2.495,6.872-6.881,7.211-11.51
		L77.397,31.828z"/>
	<path style="fill:#FFFFFF;stroke:#000000;stroke-miterlimit:10;" d="M37.071,57.221c-2.039-1.841-13.27-1.876-15.297-0.084
		c-2.385,2.107-3.897,5.18-3.897,8.612c0,6.352,5.148,11.501,11.5,11.501s11.5-5.149,11.5-11.501
		C40.876,62.361,39.402,59.325,37.071,57.221z"/>
	<path style="fill:#FFFFFF;stroke:#000000;stroke-miterlimit:10;" d="M34.528,4.809c-5.5,3.176-7.385,10.209-4.209,15.709
		c1.738,3.012,4.635,4.93,7.802,5.537c2.617,0.502,12.144-5.004,13.017-7.527c1.051-3.043,0.836-6.504-0.9-9.51
		C47.062,3.518,40.029,1.633,34.528,4.809z"/>
	<path style="fill:#FFFFFF;stroke:#000000;stroke-miterlimit:10;" d="M103.394,4.834c5.5,3.176,7.385,10.21,4.209,15.71
		c-1.738,3.011-4.635,4.93-7.802,5.537c-2.617,0.501-12.144-5.004-13.017-7.528c-1.051-3.043-0.836-6.503,0.9-9.509
		C90.859,3.544,97.893,1.658,103.394,4.834z"/>
	<path style="fill:#2F2F2F;stroke:#000000;stroke-miterlimit:10;" d="M106.31,31.854c-0.149-2.129-0.755-4.257-1.894-6.229
		c-4.003-6.934-12.872-9.311-19.807-5.307c-4.321,2.495-6.871,6.881-7.212,11.51l8.139,14.096c3.89,1.881,8.549,1.982,12.661-0.022
		L106.31,31.854z"/>
	<path style="fill:#FFFFFF;stroke:#000000;stroke-miterlimit:10;" d="M76.101,4.811c-5.5,3.176-7.385,10.209-4.209,15.709
		c1.738,3.012,4.635,4.93,7.801,5.537c2.617,0.502,12.145-5.004,13.018-7.527c1.051-3.043,0.836-6.504-0.9-9.51
		C88.634,3.52,81.601,1.635,76.101,4.811z"/>
	<path style="fill:#FFFFFF;stroke:#000000;stroke-miterlimit:10;" d="M86.72,73.818c5.5-3.176,7.385-10.209,4.209-15.709
		c-1.738-3.012-4.635-4.93-7.801-5.537C80.511,52.07,70.983,57.576,70.11,60.1c-1.051,3.043-0.836,6.504,0.9,9.51
		C74.187,75.109,81.22,76.994,86.72,73.818z"/>
	<path style="fill:#FFFFFF;stroke:#000000;stroke-miterlimit:10;" d="M100.999,73.797c-5.5-3.176-7.385-10.21-4.209-15.71
		c1.738-3.011,4.635-4.93,7.802-5.537c2.617-0.501,12.144,5.004,13.017,7.528c1.051,3.043,0.836,6.503-0.9,9.509
		C113.533,75.087,106.5,76.973,100.999,73.797z"/>
	<path style="fill:#2F2F2F;stroke:#000000;stroke-miterlimit:10;" d="M118.97,31.83c-3.889-1.881-8.548-1.982-12.66,0.023
		l-8.112,14.048c0.148,2.127,0.754,4.255,1.892,6.226c4.005,6.936,12.873,9.312,19.809,5.309c4.322-2.495,6.872-6.881,7.211-11.51
		L118.97,31.83z"/>
	<path style="fill:#FFFFFF;stroke:#000000;stroke-miterlimit:10;" d="M144.966,4.836c5.5,3.176,7.385,10.21,4.209,15.71
		c-1.738,3.011-4.635,4.93-7.802,5.537c-2.617,0.501-12.144-5.004-13.017-7.528c-1.051-3.043-0.836-6.503,0.9-9.509
		C132.432,3.546,139.465,1.66,144.966,4.836z"/>
	<path style="fill:#2F2F2F;stroke:#000000;stroke-miterlimit:10;" d="M147.882,31.855c-0.149-2.129-0.755-4.257-1.894-6.229
		c-4.003-6.934-12.872-9.311-19.807-5.307c-4.321,2.495-6.871,6.881-7.212,11.51l8.139,14.096c3.89,1.881,8.549,1.982,12.661-0.022
		L147.882,31.855z"/>
	<path style="fill:#FFFFFF;stroke:#000000;stroke-miterlimit:10;" d="M117.673,4.812c-5.5,3.176-7.385,10.209-4.209,15.709
		c1.738,3.012,4.635,4.93,7.801,5.537c2.617,0.502,12.145-5.004,13.018-7.527c1.051-3.043,0.836-6.504-0.9-9.51
		C130.206,3.521,123.173,1.637,117.673,4.812z"/>
	<path style="fill:#FFFFFF;stroke:#000000;stroke-miterlimit:10;" d="M128.292,73.82c5.5-3.176,7.385-10.209,4.209-15.709
		c-1.738-3.012-4.635-4.93-7.801-5.537c-2.617-0.502-12.145,5.004-13.018,7.527c-1.051,3.043-0.836,6.504,0.9,9.51
		C115.759,75.111,122.792,76.996,128.292,73.82z"/>
	<path style="fill:#FFFFFF;stroke:#000000;stroke-miterlimit:10;" d="M142.571,73.797c-5.5-3.176-7.385-10.21-4.209-15.71
		c1.738-3.011,4.635-4.93,7.802-5.537c2.617-0.501,12.144,5.004,13.017,7.528c1.051,3.043,0.836,6.503-0.9,9.509
		C155.105,75.087,148.072,76.973,142.571,73.797z"/>
	<path style="fill:#2F2F2F;stroke:#000000;stroke-miterlimit:10;" d="M160.542,31.83c-3.889-1.881-8.548-1.982-12.66,0.023
		l-8.112,14.048c0.148,2.127,0.754,4.255,1.892,6.226c4.005,6.936,12.873,9.312,19.809,5.309c4.322-2.495,6.872-6.881,7.211-11.51
		L160.542,31.83z"/>
	<path style="fill:#FFFFFF;stroke:#000000;stroke-miterlimit:10;" d="M169.864,73.82c5.5-3.176,7.385-10.209,4.209-15.709
		c-1.738-3.012-4.635-4.93-7.801-5.537c-2.617-0.502-12.145,5.004-13.018,7.527c-1.051,3.043-0.836,6.504,0.9,9.51
		C157.331,75.111,164.364,76.996,169.864,73.82z"/>
	<path style="fill:#FFFFFF;stroke:#000000;stroke-miterlimit:10;" d="M23.441,31.709C22.664,25.928,17.958,21.375,12,21.375
		c-6.352,0-11.5,5.149-11.5,11.5c0,6.352,5.148,11.501,11.5,11.501c1.052,0,2.065-0.154,3.034-0.418
		C17.258,43.353,23.841,34.686,23.441,31.709z"/>
	<circle style="fill:#FFFFFF;stroke:#000000;stroke-miterlimit:10;" cx="188.506" cy="26.377" r="11.5"/>
	<path style="fill:#2F2F2F;stroke:#000000;stroke-miterlimit:10;" d="M168.681,45.926c4.178,2.021,9.25,2.006,13.572-0.49
		c6.936-4.004,9.312-12.873,5.309-19.807c-4.004-6.936-12.872-9.312-19.809-5.309c-4.322,2.495-6.871,6.881-7.211,11.51
		L168.681,45.926z"/>
	<path style="fill:#FFFFFF;stroke:#000000;stroke-miterlimit:10;" d="M167.435,20.531c2.039,1.841,13.271,1.876,15.298,0.084
		c2.386-2.107,3.897-5.18,3.897-8.612c0-6.352-5.148-11.501-11.5-11.501s-11.5,5.149-11.5,11.501
		C163.63,15.391,165.104,18.427,167.435,20.531z"/>
	<path style="fill:#FFFFFF;stroke:#000000;stroke-miterlimit:10;" d="M181.065,46.043c0.777,5.781,5.482,10.334,11.44,10.334
		c6.352,0,11.5-5.149,11.5-11.5c0-6.352-5.148-11.501-11.5-11.501c-1.052,0-2.065,0.154-3.034,0.418
		C187.247,34.399,180.665,43.066,181.065,46.043z"/>
</g>
<g id="outline">
	<path style="fill:none;" d="M196.88,34.242c1.934-2.058,3.126-4.819,3.126-7.865c0-6.352-5.148-11.501-11.5-11.501
		c-0.795,0-1.571,0.081-2.32,0.234c0.279-0.99,0.444-2.027,0.444-3.107c0-6.352-5.148-11.501-11.5-11.501s-11.5,5.149-11.5,11.501
		c0,3.388,1.475,6.424,3.805,8.528l0,0c-4.12,2.525-6.562,6.79-6.893,11.299c-3.889-1.881-8.548-1.982-12.66,0.023l0,0
		c-0.149-2.128-0.755-4.256-1.894-6.227c-0.218-0.378-0.456-0.735-0.702-1.086c1.555-0.964,2.909-2.299,3.889-3.995
		c3.176-5.5,1.291-12.534-4.209-15.71c-4.506-2.601-10.035-1.803-13.635,1.592c-3.6-3.414-9.144-4.223-13.658-1.615
		c-5.5,3.176-7.385,10.209-4.209,15.709c1.64,2.842,4.314,4.694,7.271,5.406c-0.996,1.824-1.612,3.834-1.765,5.902
		c-3.889-1.881-8.548-1.982-12.66,0.023c-0.149-2.129-0.755-4.257-1.894-6.229c-0.218-0.378-0.457-0.735-0.702-1.086
		c1.555-0.964,2.91-2.299,3.889-3.995c3.176-5.5,1.291-12.534-4.209-15.71c-4.505-2.601-10.035-1.803-13.635,1.592
		c-3.6-3.414-9.144-4.223-13.658-1.615c-5.5,3.176-7.385,10.209-4.209,15.709c1.64,2.842,4.314,4.694,7.271,5.406
		c-0.996,1.824-1.612,3.834-1.765,5.902c-3.889-1.881-8.548-1.982-12.66,0.023c-0.149-2.129-0.755-4.257-1.894-6.229
		c-0.218-0.378-0.457-0.735-0.702-1.086c1.555-0.964,2.91-2.299,3.889-3.995c3.176-5.5,1.291-12.534-4.209-15.71
		c-4.505-2.601-10.035-1.803-13.635,1.592c-3.599-3.414-9.143-4.223-13.659-1.615c-5.5,3.176-7.385,10.209-4.209,15.709
		c1.64,2.842,4.314,4.694,7.271,5.406c-0.996,1.824-1.612,3.834-1.764,5.902c-3.801-1.838-8.342-1.985-12.385-0.118
		C22.663,25.928,17.958,21.375,12,21.375c-6.352,0-11.5,5.149-11.5,11.5c0,4.803,2.945,8.913,7.126,10.635
		C5.693,45.567,4.5,48.329,4.5,51.375c0,6.352,5.148,11.501,11.5,11.501c0.795,0,1.571-0.081,2.32-0.234
		c-0.279,0.99-0.444,2.027-0.444,3.107c0,6.352,5.148,11.501,11.5,11.501s11.5-5.149,11.5-11.501c0-3.388-1.474-6.424-3.805-8.528
		l0,0c4.121-2.525,6.562-6.789,6.893-11.299c3.89,1.881,8.549,1.982,12.661-0.022c0.148,2.127,0.754,4.255,1.892,6.226
		c0.336,0.583,0.719,1.121,1.12,1.639c-1.782,0.975-3.329,2.433-4.419,4.321c-3.176,5.5-1.291,12.534,4.209,15.71
		c4.505,2.601,10.035,1.803,13.635-1.592c3.6,3.414,9.144,4.223,13.658,1.615c5.5-3.176,7.385-10.209,4.209-15.709
		c-1.702-2.948-4.516-4.84-7.604-5.488c1.275-2.022,2.037-4.326,2.211-6.697c3.89,1.881,8.549,1.982,12.661-0.022
		c0.148,2.127,0.754,4.255,1.892,6.226c0.336,0.583,0.719,1.121,1.12,1.639c-1.782,0.975-3.329,2.433-4.419,4.321
		c-3.176,5.5-1.291,12.534,4.209,15.71c4.505,2.601,10.035,1.803,13.635-1.592c3.6,3.414,9.144,4.223,13.658,1.615
		c5.5-3.176,7.385-10.209,4.209-15.709c-1.702-2.948-4.516-4.84-7.604-5.488c1.275-2.022,2.037-4.326,2.211-6.697
		c3.89,1.881,8.549,1.982,12.661-0.022l0,0c0.148,2.126,0.754,4.253,1.892,6.224c0.337,0.583,0.719,1.121,1.12,1.639
		c-1.782,0.975-3.329,2.433-4.419,4.321c-3.176,5.5-1.291,12.534,4.209,15.71c4.506,2.601,10.035,1.803,13.635-1.592
		c3.6,3.414,9.144,4.223,13.658,1.615c5.5-3.176,7.385-10.209,4.209-15.709c-1.702-2.948-4.516-4.84-7.604-5.488
		c1.275-2.022,2.037-4.326,2.211-6.697c3.801,1.838,8.341,1.985,12.385,0.117c0.777,5.781,5.482,10.334,11.44,10.334
		c6.352,0,11.5-5.149,11.5-11.5C204.006,40.074,201.061,35.964,196.88,34.242z"/>
</g>
</svg>
