<?xml version="1.0" encoding="utf-8"?>
<!-- Generator: Adobe Illustrator 15.0.2, SVG Export Plug-In . SVG Version: 6.00 Build 0)  -->
<!DOCTYPE svg PUBLIC "-//W3C//DTD SVG 1.1//EN" "http://www.w3.org/Graphics/SVG/1.1/DTD/svg11.dtd">
<svg version="1.1" xmlns="http://www.w3.org/2000/svg" xmlns:xlink="http://www.w3.org/1999/xlink" x="0px" y="0px"
	 width="142.135px" height="75.011px" viewBox="0 0 142.135 75.011" style="enable-background:new 0 0 142.135 75.011;"
	 xml:space="preserve">
<g id="object">
	<path style="fill:#FFFFFF;stroke:#000000;stroke-miterlimit:10;" d="M59.427,71.029c-5.5-3.176-7.385-10.21-4.209-15.71
		c1.738-3.011,4.635-4.93,7.802-5.537c2.617-0.501,12.144,5.004,13.017,7.528c1.051,3.043,0.836,6.503-0.9,9.509
		C71.961,72.319,64.928,74.205,59.427,71.029z"/>
	<path style="fill:#FFFFFF;stroke:#000000;stroke-miterlimit:10;" d="M61.821,2.066c5.5,3.176,7.385,10.209,4.209,15.709
		c-1.738,3.011-4.635,4.93-7.802,5.537c-2.617,0.501-12.144-5.004-13.017-7.528c-1.051-3.042-0.836-6.503,0.9-9.509
		C49.287,0.776,56.32-1.109,61.821,2.066z"/>
	<circle style="fill:#FFFFFF;stroke:#000000;stroke-miterlimit:10;" cx="16" cy="48.609" r="11.5"/>
	<path style="fill:#2F2F2F;stroke:#000000;stroke-miterlimit:10;" d="M35.826,29.06c-4.178-2.02-9.251-2.005-13.573,0.491
		c-6.936,4.004-9.312,12.873-5.309,19.807c4.004,6.936,12.872,9.312,19.809,5.309c4.322-2.495,6.872-6.881,7.211-11.51L35.826,29.06
		z"/>
	<path style="fill:#2F2F2F;stroke:#000000;stroke-miterlimit:10;" d="M64.737,29.085c-0.149-2.128-0.755-4.257-1.894-6.229
		c-4.003-6.933-12.872-9.31-19.807-5.306c-4.322,2.495-6.871,6.881-7.211,11.509l8.138,14.096c3.89,1.881,8.549,1.982,12.661-0.022
		L64.737,29.085z"/>
	<path style="fill:#2F2F2F;stroke:#000000;stroke-miterlimit:10;" d="M77.397,29.062c-3.889-1.88-8.548-1.981-12.66,0.024
		l-8.112,14.048c0.148,2.127,0.754,4.255,1.892,6.226c4.005,6.936,12.873,9.312,19.809,5.309c4.322-2.495,6.872-6.881,7.211-11.51
		L77.397,29.062z"/>
	<path style="fill:#FFFFFF;stroke:#000000;stroke-miterlimit:10;" d="M37.071,54.455c-2.039-1.841-13.27-1.876-15.297-0.084
		c-2.385,2.107-3.897,5.18-3.897,8.612c0,6.352,5.148,11.501,11.5,11.501s11.5-5.149,11.5-11.501
		C40.876,59.595,39.402,56.559,37.071,54.455z"/>
	<path style="fill:#FFFFFF;stroke:#000000;stroke-miterlimit:10;" d="M34.528,2.042c-5.5,3.176-7.385,10.209-4.209,15.709
		c1.738,3.011,4.635,4.93,7.802,5.537c2.617,0.501,12.144-5.004,13.017-7.528c1.051-3.042,0.836-6.503-0.9-9.509
		C47.062,0.752,40.029-1.133,34.528,2.042z"/>
	<path style="fill:#FFFFFF;stroke:#000000;stroke-miterlimit:10;" d="M103.394,2.068c5.5,3.176,7.385,10.209,4.209,15.709
		c-1.738,3.011-4.635,4.93-7.802,5.537c-2.617,0.501-12.144-5.004-13.017-7.528c-1.051-3.042-0.836-6.503,0.9-9.509
		C90.859,0.778,97.893-1.107,103.394,2.068z"/>
	<path style="fill:#2F2F2F;stroke:#000000;stroke-miterlimit:10;" d="M106.31,29.087c-0.149-2.128-0.755-4.257-1.894-6.229
		c-4.003-6.933-12.872-9.31-19.807-5.306c-4.321,2.495-6.871,6.881-7.212,11.509l8.139,14.096c3.89,1.881,8.549,1.982,12.661-0.022
		L106.31,29.087z"/>
	<path style="fill:#FFFFFF;stroke:#000000;stroke-miterlimit:10;" d="M76.101,2.044c-5.5,3.176-7.385,10.209-4.209,15.709
		c1.738,3.011,4.635,4.93,7.801,5.537c2.617,0.501,12.145-5.004,13.018-7.528c1.051-3.042,0.836-6.503-0.9-9.509
		C88.634,0.754,81.601-1.131,76.101,2.044z"/>
	<path style="fill:#FFFFFF;stroke:#000000;stroke-miterlimit:10;" d="M86.72,71.052c5.5-3.176,7.385-10.209,4.209-15.709
		c-1.738-3.012-4.635-4.93-7.801-5.537c-2.617-0.502-12.145,5.004-13.018,7.527c-1.051,3.043-0.836,6.504,0.9,9.51
		C74.187,72.343,81.22,74.228,86.72,71.052z"/>
	<path style="fill:#FFFFFF;stroke:#000000;stroke-miterlimit:10;" d="M23.441,28.942C22.664,23.162,17.958,18.609,12,18.609
		c-6.352,0-11.5,5.149-11.5,11.5C0.5,36.46,5.648,41.61,12,41.61c1.052,0,2.065-0.154,3.034-0.418
		C17.258,40.586,23.841,31.919,23.441,28.942z"/>
	<circle style="fill:#FFFFFF;stroke:#000000;stroke-miterlimit:10;" cx="126.135" cy="48.636" r="11.5"/>
	<path style="fill:#2F2F2F;stroke:#000000;stroke-miterlimit:10;" d="M106.31,29.087c4.179-2.02,9.251-2.005,13.573,0.491
		c6.936,4.003,9.311,12.873,5.309,19.806c-4.004,6.936-12.873,9.312-19.809,5.309c-4.322-2.494-6.872-6.881-7.211-11.51
		L106.31,29.087z"/>
	<path style="fill:#FFFFFF;stroke:#000000;stroke-miterlimit:10;" d="M105.064,54.482c2.039-1.84,13.27-1.875,15.297-0.084
		c2.386,2.107,3.898,5.18,3.898,8.613c0,6.352-5.148,11.5-11.5,11.5s-11.5-5.148-11.5-11.5
		C101.26,59.623,102.733,56.587,105.064,54.482z"/>
	<path style="fill:#FFFFFF;stroke:#000000;stroke-miterlimit:10;" d="M118.694,28.97c0.777-5.78,5.483-10.333,11.44-10.333
		c6.352,0,11.5,5.149,11.5,11.499c0,6.352-5.148,11.502-11.5,11.502c-1.051,0-2.064-0.154-3.033-0.418
		C124.877,40.615,118.294,31.947,118.694,28.97z"/>
</g>
<g id="outline">
	<g>
		<path style="fill:none;" d="M103.714,21.773c1.556-0.964,2.909-2.299,3.889-3.995c3.176-5.5,1.291-12.534-4.209-15.709
			C98.888-0.533,93.358,0.265,89.759,3.66c-3.6-3.414-9.144-4.222-13.658-1.615c-5.5,3.176-7.385,10.209-4.209,15.709
			c1.64,2.841,4.314,4.694,7.271,5.406c-0.996,1.825-1.612,3.833-1.765,5.901c-3.889-1.88-8.548-1.981-12.66,0.024
			c-0.149-2.128-0.755-4.257-1.894-6.229c-0.218-0.377-0.456-0.735-0.702-1.085c1.556-0.964,2.909-2.299,3.889-3.995
			c3.176-5.5,1.291-12.534-4.209-15.709c-4.505-2.601-10.036-1.803-13.635,1.591c-3.6-3.414-9.143-4.222-13.659-1.615
			c-5.5,3.176-7.385,10.209-4.209,15.709c1.64,2.841,4.314,4.694,7.271,5.406c-0.995,1.824-1.612,3.833-1.764,5.901
			c-3.801-1.838-8.342-1.984-12.385-0.117l0,0C22.664,23.162,17.958,18.609,12,18.609c-6.352,0-11.5,5.149-11.5,11.5
			c0,4.803,2.945,8.913,7.126,10.635C5.693,42.801,4.5,45.563,4.5,48.609C4.5,54.96,9.648,60.11,16,60.11
			c0.795,0,1.571-0.081,2.32-0.234c-0.279,0.99-0.444,2.027-0.444,3.107c0,6.352,5.148,11.501,11.5,11.501s11.5-5.149,11.5-11.501
			c0-3.388-1.474-6.424-3.805-8.528l0,0c4.121-2.525,6.562-6.789,6.893-11.299c3.89,1.881,8.549,1.982,12.661-0.022
			c0.148,2.127,0.754,4.255,1.892,6.226c0.337,0.583,0.719,1.121,1.12,1.639c-1.782,0.975-3.329,2.433-4.419,4.321
			c-3.176,5.5-1.291,12.534,4.209,15.71c4.506,2.601,10.035,1.803,13.635-1.592c3.6,3.414,9.144,4.223,13.658,1.615
			c5.5-3.176,7.385-10.209,4.209-15.709c-1.702-2.948-4.516-4.84-7.604-5.488c1.275-2.022,2.037-4.326,2.211-6.697
			c3.89,1.881,8.549,1.982,12.661-0.022l8.112-14.048c-0.149-2.128-0.755-4.257-1.894-6.229
			C104.198,22.481,103.96,22.123,103.714,21.773z"/>
		<path style="fill:none;" d="M141.635,30.136c0-6.35-5.148-11.499-11.5-11.499c-5.957,0-10.663,4.553-11.44,10.333
			c-4.043-1.867-8.583-1.721-12.385,0.117l-8.138,14.096c0.33,4.509,2.772,8.774,6.893,11.299l0,0
			c-2.331,2.105-3.805,5.141-3.805,8.529c0,6.352,5.148,11.5,11.5,11.5s11.5-5.148,11.5-11.5c0-1.08-0.165-2.117-0.444-3.107
			c0.749,0.153,1.524,0.234,2.319,0.234c6.352,0,11.5-5.15,11.5-11.502c0-3.045-1.192-5.807-3.126-7.864
			C138.689,39.049,141.635,34.938,141.635,30.136z"/>
	</g>
</g>
</svg>
