<?xml version="1.0" encoding="utf-8"?>
<!-- Generator: Adobe Illustrator 15.0.2, SVG Export Plug-In . SVG Version: 6.00 Build 0)  -->
<!DOCTYPE svg PUBLIC "-//W3C//DTD SVG 1.1//EN" "http://www.w3.org/Graphics/SVG/1.1/DTD/svg11.dtd">
<svg version="1.1" xmlns="http://www.w3.org/2000/svg" xmlns:xlink="http://www.w3.org/1999/xlink" x="0px" y="0px" width="97px"
	 height="58px" viewBox="0 0 97 58" enable-background="new 0 0 97 58" xml:space="preserve">
<g id="object">
	<path fill="#B1B1B1" d="M68,0C57.692,0,48.63,5.41,43.485,13.536C38.989,8.026,32.149,4.5,24.5,4.5C10.991,4.5,0,15.491,0,29
		c0,13.51,10.991,24.5,24.5,24.5c7.649,0,14.489-3.525,18.986-9.035C48.63,52.59,57.692,58,68,58c15.99,0,29-13.01,29-29
		C97,13.009,83.99,0,68,0z"/>
	<circle fill="#005555" stroke="#000000" stroke-miterlimit="10" cx="68" cy="29" r="24"/>
	<circle fill="#FFA9FF" stroke="#000000" stroke-miterlimit="10" cx="24.5" cy="29" r="19.5"/>
</g>
<g id="circles">
	<circle fill="none" cx="68" cy="29" r="29"/>
	<circle fill="none" cx="24.5" cy="29" r="24.5"/>
</g>
</svg>
