<?xml version="1.0" encoding="utf-8"?>
<!-- Generator: Adobe Illustrator 15.0.2, SVG Export Plug-In . SVG Version: 6.00 Build 0)  -->
<!DOCTYPE svg PUBLIC "-//W3C//DTD SVG 1.1//EN" "http://www.w3.org/Graphics/SVG/1.1/DTD/svg11.dtd">
<svg version="1.1" xmlns="http://www.w3.org/2000/svg" xmlns:xlink="http://www.w3.org/1999/xlink" x="0px" y="0px"
	 width="102.505px" height="74.266px" viewBox="0 0 102.505 74.266" style="enable-background:new 0 0 102.505 74.266;"
	 xml:space="preserve">
<g id="object">
	<path style="fill:#B1B1B1;" d="M56.547,73.627c4.772-1.278,8.763-4.34,11.233-8.62c1.619-2.806,2.476-5.995,2.476-9.223
		c0-0.787-0.067-1.574-0.168-2.357c0.954-0.446,1.868-0.974,2.731-1.58c3.18,2.419,7.099,3.781,11.186,3.781
		c10.201,0,18.5-8.299,18.5-18.5s-8.299-18.5-18.5-18.5c-4.087,0-8.006,1.362-11.186,3.781c-0.865-0.606-1.779-1.134-2.733-1.581
		c0.101-0.78,0.167-1.564,0.167-2.348c0-3.228-0.857-6.417-2.477-9.222c-2.471-4.28-6.46-7.342-11.233-8.621
		s-9.759-0.622-14.038,1.849c-4.504,2.601-7.652,6.978-8.784,11.949c-2.849-1.162-5.96-1.807-9.221-1.807
		c-13.51,0-24.5,10.99-24.5,24.5c0,13.51,10.99,24.5,24.5,24.5c3.262,0,6.374-0.646,9.223-1.808
		c1.129,4.974,4.279,9.355,8.786,11.958C46.788,74.249,51.773,74.906,56.547,73.627z"/>
	<g>
		<path style="fill:#0000FF;stroke:#000000;stroke-miterlimit:10;" d="M63.979,50.038c3.672-0.415,6.871-2.362,8.963-5.185V29.402
			c-2.092-2.822-5.291-4.77-8.963-5.185l-13.396,7.732c-0.691,1.588-1.078,3.337-1.078,5.179s0.387,3.591,1.078,5.178L63.979,50.038
			z"/>
		<path style="fill:#FF0000;stroke:#000000;stroke-miterlimit:10;" d="M63.979,24.217c1.797-3.856,1.756-8.495-0.533-12.458
			C59.718,5.3,51.462,3.089,45.005,6.817s-8.67,11.983-4.941,18.442c2.289,3.962,6.283,6.317,10.52,6.69L63.979,24.217z"/>
		<path style="fill:#FF0000;stroke:#000000;stroke-miterlimit:10;" d="M72.942,44.854c2.441,3.488,6.482,5.774,11.062,5.774
			c7.457,0,13.5-6.044,13.5-13.5s-6.043-13.5-13.5-13.5c-4.58,0-8.621,2.287-11.062,5.774V44.854z"/>
		<path style="fill:#FF0000;stroke:#000000;stroke-miterlimit:10;" d="M50.599,42.313c-4.24,0.369-8.24,2.727-10.531,6.693
			c-3.729,6.458-1.516,14.713,4.941,18.441s14.713,1.517,18.441-4.941c2.289-3.967,2.33-8.61,0.529-12.468L50.599,42.313z"/>
	</g>
	<circle style="fill:#FFA9FF;stroke:#000000;stroke-miterlimit:10;" cx="24.5" cy="37.128" r="19.5"/>
</g>
<g id="outline">
	<path style="fill:none;" d="M84.005,18.628c-4.087,0-8.006,1.362-11.186,3.781c-0.865-0.606-1.779-1.134-2.733-1.581
		c0.101-0.78,0.167-1.564,0.167-2.348c0-3.228-0.857-6.417-2.477-9.222c-2.471-4.28-6.46-7.342-11.233-8.621
		s-9.759-0.622-14.038,1.849c-4.504,2.601-7.652,6.978-8.784,11.949c-2.849-1.162-5.96-1.807-9.221-1.807
		c-13.51,0-24.5,10.99-24.5,24.5c0,13.51,10.99,24.5,24.5,24.5c3.262,0,6.374-0.646,9.223-1.808
		c1.129,4.974,4.279,9.355,8.786,11.958c4.279,2.471,9.265,3.128,14.038,1.849c4.772-1.278,8.763-4.34,11.233-8.62
		c1.619-2.806,2.476-5.995,2.476-9.223c0-0.787-0.067-1.574-0.168-2.357c0.954-0.446,1.868-0.974,2.731-1.58
		c3.18,2.419,7.099,3.781,11.186,3.781c10.201,0,18.5-8.299,18.5-18.5S94.206,18.628,84.005,18.628z"/>
</g>
</svg>
