<?xml version="1.0" encoding="utf-8"?>
<!-- Generator: Adobe Illustrator 15.0.2, SVG Export Plug-In . SVG Version: 6.00 Build 0)  -->
<!DOCTYPE svg PUBLIC "-//W3C//DTD SVG 1.1//EN" "http://www.w3.org/Graphics/SVG/1.1/DTD/svg11.dtd">
<svg version="1.1" xmlns="http://www.w3.org/2000/svg" xmlns:xlink="http://www.w3.org/1999/xlink" x="0px" y="0px" width="95px"
	 height="56px" viewBox="0 0 95 56" enable-background="new 0 0 95 56" xml:space="preserve">
<g id="object">
	<path fill="#B1B1B1" d="M70.5,3.5c-7.71,0-14.595,3.583-19.089,9.167C46.402,5.045,37.782,0,28,0C12.561,0,0,12.561,0,28
		s12.561,28,28,28c9.782,0,18.402-5.045,23.411-12.667C55.905,48.917,62.79,52.5,70.5,52.5C84.01,52.5,95,41.51,95,28
		C95,14.491,84.01,3.5,70.5,3.5z"/>
	<circle fill="#00FF00" stroke="#000000" stroke-miterlimit="10" cx="28" cy="28" r="23"/>
	<circle fill="#FFA9FF" stroke="#000000" stroke-miterlimit="10" cx="70.5" cy="28" r="19.5"/>
</g>
<g id="circles">
	<circle id="Chlorine-Ion" fill="none" cx="28" cy="28" r="28"/>
	<circle id="Potassium-Ion" fill="none" cx="70.5" cy="28" r="24.5"/>
</g>
</svg>
