<?xml version="1.0" encoding="utf-8"?>
<!-- Generator: Adobe Illustrator 15.0.2, SVG Export Plug-In . SVG Version: 6.00 Build 0)  -->
<!DOCTYPE svg PUBLIC "-//W3C//DTD SVG 1.1//EN" "http://www.w3.org/Graphics/SVG/1.1/DTD/svg11.dtd">
<svg version="1.1" xmlns="http://www.w3.org/2000/svg" xmlns:xlink="http://www.w3.org/1999/xlink" x="0px" y="0px"
	 width="97.961px" height="74.254px" viewBox="0 0 97.961 74.254" enable-background="new 0 0 97.961 74.254" xml:space="preserve">
<g id="object">
	<path fill="#B1B1B1" d="M79.461,18.622c-4.086,0-8.005,1.362-11.187,3.781c-0.86-0.604-1.772-1.131-2.724-1.576
		c0.504-3.964-0.275-8.038-2.318-11.575C59.938,3.545,53.794,0,47.199,0c-3.232,0-6.427,0.858-9.238,2.481
		c-5.006,2.891-8.146,7.785-9.003,13.09c-2.047-0.615-4.214-0.949-6.458-0.949c-12.407,0-22.5,10.093-22.5,22.5
		c0,12.406,10.093,22.5,22.5,22.5c2.245,0,4.413-0.335,6.461-0.95c0.854,5.31,3.994,10.208,9.003,13.101
		c2.811,1.623,6.006,2.481,9.239,2.481c6.594,0,12.738-3.546,16.034-9.254c2.044-3.541,2.822-7.618,2.316-11.584
		c0.95-0.445,1.861-0.972,2.722-1.575c3.181,2.419,7.1,3.781,11.186,3.781c10.201,0,18.5-8.299,18.5-18.5
		S89.662,18.622,79.461,18.622z"/>
	<g>
		<path fill="#0000FF" stroke="#000000" stroke-miterlimit="10" d="M59.436,50.032c3.672-0.415,6.871-2.362,8.963-5.185V29.396
			c-2.092-2.822-5.291-4.77-8.963-5.185l-13.396,7.732c-0.691,1.588-1.078,3.337-1.078,5.179s0.387,3.591,1.078,5.178L59.436,50.032
			z"/>
		<path fill="#FF0000" stroke="#000000" stroke-miterlimit="10" d="M59.436,24.211c1.797-3.856,1.756-8.495-0.533-12.458
			c-3.729-6.458-11.984-8.67-18.441-4.942s-8.67,11.983-4.941,18.442c2.289,3.962,6.283,6.317,10.52,6.69L59.436,24.211z"/>
		<path fill="#FF0000" stroke="#000000" stroke-miterlimit="10" d="M68.398,44.848c2.441,3.488,6.482,5.774,11.062,5.774
			c7.457,0,13.5-6.044,13.5-13.5s-6.043-13.5-13.5-13.5c-4.58,0-8.621,2.287-11.062,5.774V44.848z"/>
		<path fill="#FF0000" stroke="#000000" stroke-miterlimit="10" d="M46.055,42.308c-4.24,0.369-8.24,2.727-10.531,6.693
			c-3.729,6.458-1.516,14.713,4.941,18.441s14.713,1.517,18.441-4.941c2.289-3.967,2.33-8.61,0.529-12.468L46.055,42.308z"/>
	</g>
	<circle fill="#A9A9FF" stroke="#000000" stroke-miterlimit="10" cx="22.5" cy="37.122" r="17.5"/>
</g>
<g id="circles">
	<circle fill="none" cx="22.5" cy="37.122" r="22.477"/>
	<circle fill="none" cx="60.886" cy="37.047" r="18.575"/>
	<circle fill="none" cx="79.373" cy="37.047" r="18.487"/>
	<circle fill="none" cx="47.208" cy="55.622" r="18.487"/>
	<circle fill="none" cx="47.208" cy="18.472" r="18.487"/>
</g>
</svg>
