<?xml version="1.0" encoding="utf-8"?>
<!-- Generator: Adobe Illustrator 15.0.2, SVG Export Plug-In . SVG Version: 6.00 Build 0)  -->
<!DOCTYPE svg PUBLIC "-//W3C//DTD SVG 1.1//EN" "http://www.w3.org/Graphics/SVG/1.1/DTD/svg11.dtd">
<svg version="1.1" xmlns="http://www.w3.org/2000/svg" xmlns:xlink="http://www.w3.org/1999/xlink" x="0px" y="0px" width="90px"
	 height="45px" viewBox="0 0 90 45" enable-background="new 0 0 90 45" xml:space="preserve">
<g id="object">
	<path fill="#B1B1B1" d="M73.5,6c-2.932,0-5.762,0.789-8.242,2.224C61.989,5.526,57.856,4,53.5,4c-4.992,0-9.521,1.996-12.852,5.221
		C36.55,3.635,29.943,0,22.5,0C10.093,0,0,10.093,0,22.5C0,34.906,10.093,45,22.5,45c7.443,0,14.05-3.636,18.148-9.221
		C43.979,39.004,48.508,41,53.5,41c4.355,0,8.487-1.527,11.757-4.225C67.737,38.211,70.568,39,73.5,39C82.599,39,90,31.598,90,22.5
		C90,13.402,82.599,6,73.5,6z"/>
	<path fill="#FFFFFF" stroke="#000000" stroke-miterlimit="10" d="M73.5,11c-3.505,0-6.639,1.573-8.748,4.046v14.907
		C66.861,32.427,69.995,34,73.5,34C79.851,34,85,28.852,85,22.5C85,16.149,79.851,11,73.5,11z"/>
	<path fill="#FF0000" stroke="#000000" stroke-miterlimit="10" d="M64.752,15.046C62.335,11.403,58.2,9,53.5,9
		C46.044,9,40,15.042,40,22.5C40,29.955,46.044,36,53.5,36c4.699,0,8.834-2.404,11.252-6.047V15.046z"/>
	<circle fill="#A9A9FF" stroke="#000000" stroke-miterlimit="10" cx="22.5" cy="22.5" r="17.5"/>
</g>
<g id="circles">
	<circle id="Silver-Ion" fill="none" cx="22.5" cy="22.5" r="22.5"/>
	<circle id="Oxygen-Ion" fill="none" cx="53.5" cy="22.5" r="18.5"/>
	<circle id="Hydrogen-Ion" fill="none" cx="73.5" cy="22.5" r="16.492"/>
</g>
</svg>
