<?xml version="1.0" encoding="utf-8"?>
<!-- Generator: Adobe Illustrator 15.0.2, SVG Export Plug-In . SVG Version: 6.00 Build 0)  -->
<!DOCTYPE svg PUBLIC "-//W3C//DTD SVG 1.1//EN" "http://www.w3.org/Graphics/SVG/1.1/DTD/svg11.dtd">
<svg version="1.1" xmlns="http://www.w3.org/2000/svg" xmlns:xlink="http://www.w3.org/1999/xlink" x="0px" y="0px" width="98px"
	 height="58px" viewBox="0 0 98 58" enable-background="new 0 0 98 58" xml:space="preserve">
<g id="object">
	<path fill="#B1B1B1" d="M69,0C58.732,0,49.701,5.368,44.546,13.44C39.962,7.693,32.906,4,25,4C11.215,4,0,15.215,0,29
		s11.215,25,25,25c7.906,0,14.962-3.693,19.546-9.44C49.701,52.632,58.732,58,69,58c15.991,0,29-13.009,29-29S84.991,0,69,0z"/>
	<circle fill="#005555" stroke="#000000" stroke-miterlimit="10" cx="69" cy="29" r="24"/>
	<circle fill="#A9A9FF" stroke="#000000" stroke-miterlimit="10" cx="25" cy="29" r="20"/>
</g>
<g id="circles">
	<circle id="Silver-Ion" fill="none" cx="25.007" cy="28.993" r="25.007"/>
	<circle id="Bromine-Ion" fill="none" cx="69" cy="28.993" r="29"/>
</g>
</svg>
