<?xml version="1.0" encoding="utf-8"?>
<!-- Generator: Adobe Illustrator 15.0.2, SVG Export Plug-In . SVG Version: 6.00 Build 0)  -->
<!DOCTYPE svg PUBLIC "-//W3C//DTD SVG 1.1//EN" "http://www.w3.org/Graphics/SVG/1.1/DTD/svg11.dtd">
<svg version="1.1" xmlns="http://www.w3.org/2000/svg" xmlns:xlink="http://www.w3.org/1999/xlink" x="0px" y="0px" width="91px"
	 height="56px" viewBox="0 0 91 56" enable-background="new 0 0 91 56" xml:space="preserve">
<g id="object">
	<path fill="#B1B1B1" d="M22.5,50.5c6.687,0,12.698-2.936,16.823-7.581C44.288,50.771,53.042,56,63,56c15.439,0,28-12.561,28-28
		S78.439,0,63,0c-9.958,0-18.712,5.229-23.678,13.081C35.198,8.436,29.187,5.5,22.5,5.5C10.094,5.5,0,15.594,0,28
		S10.094,50.5,22.5,50.5z"/>
	<circle fill="#A9A9FF" stroke="#000000" stroke-miterlimit="10" cx="22.5" cy="28" r="17.5"/>
	<circle fill="#00FF00" stroke="#000000" stroke-miterlimit="10" cx="63" cy="28" r="23"/>
</g>
<g id="circles">
	<circle id="Silver-Ion" fill="none" cx="22.5" cy="28" r="22.482"/>
	<circle id="Chlorine-Ion" fill="none" cx="63" cy="28" r="27.993"/>
</g>
</svg>
