<?xml version="1.0" encoding="utf-8"?>
<!-- Generator: Adobe Illustrator 15.0.2, SVG Export Plug-In . SVG Version: 6.00 Build 0)  -->
<!DOCTYPE svg PUBLIC "-//W3C//DTD SVG 1.1//EN" "http://www.w3.org/Graphics/SVG/1.1/DTD/svg11.dtd">
<svg version="1.1" xmlns="http://www.w3.org/2000/svg" xmlns:xlink="http://www.w3.org/1999/xlink" x="0px" y="0px"
	 width="106.966px" height="71.509px" viewBox="0 0 106.966 71.509" enable-background="new 0 0 106.966 71.509"
	 xml:space="preserve">
<g id="object">
	<g>
		<path fill="#B1B1B1" d="M90.209,26.121c2.366-5.248,2.281-11.514-0.811-16.869c-3.295-5.707-9.439-9.251-16.035-9.251
			c-3.232,0-6.426,0.858-9.237,2.48c-3.333,1.924-5.94,4.847-7.525,8.281c-1.032-0.169-2.081-0.26-3.144-0.26
			c-1.061,0-2.107,0.084-3.138,0.253c-1.584-3.433-4.199-6.351-7.53-8.275C39.979,0.858,36.785,0,33.553,0
			c-6.595,0-12.739,3.545-16.034,9.252c-2.471,4.279-3.127,9.265-1.849,14.039c0.265,0.987,0.623,1.932,1.035,2.845
			C7.099,28.699,0,37.472,0,47.875c0,12.406,10.093,22.5,22.5,22.5c6.219,0,11.855-2.536,15.932-6.628
			c3.36,4.689,8.841,7.762,15.036,7.762h0.005c4.941-0.001,9.585-1.928,13.079-5.424c0.732-0.732,1.378-1.526,1.969-2.352
			c4.078,4.1,9.72,6.642,15.945,6.642c12.406,0,22.5-10.094,22.5-22.5C106.966,37.454,99.842,28.667,90.209,26.121z"/>
	</g>
	<g>
		<path fill="#2F2F2F" stroke="#000000" stroke-miterlimit="10" d="M61.418,42.117c3.719-2.449,6.23-6.563,6.499-11.282
			l-7.949-13.776c-1.959-0.987-4.166-1.556-6.51-1.556s-4.55,0.569-6.509,1.556L39,30.834c0.269,4.719,2.779,8.833,6.499,11.282
			H61.418z"/>
		<path fill="#FF0000" stroke="#000000" stroke-miterlimit="10" d="M67.917,30.835c3.806,1.682,8.33,1.6,12.21-0.641
			c6.456-3.728,8.67-11.983,4.941-18.441C81.34,5.296,73.083,3.084,66.626,6.812c-3.878,2.239-6.21,6.113-6.659,10.248
			C59.968,17.059,67.932,30.558,67.917,30.835z"/>
		<path fill="#FF0000" stroke="#000000" stroke-miterlimit="10" d="M45.513,42.117c-3.358,2.457-5.549,6.416-5.548,10.896
			c0.004,7.456,6.049,13.498,13.507,13.496c7.454-0.002,13.497-6.051,13.494-13.505c-0.001-4.478-2.19-8.435-5.548-10.889
			C61.418,42.116,45.745,42.269,45.513,42.117z"/>
		<path fill="#FF0000" stroke="#000000" stroke-miterlimit="10" d="M46.949,17.059C46.5,12.924,44.168,9.05,40.29,6.811
			c-6.456-3.728-14.713-1.517-18.441,4.941c-3.729,6.457-1.516,14.714,4.941,18.441c3.88,2.24,8.403,2.322,12.21,0.641
			L46.949,17.059z"/>
	</g>
	<circle fill="#A9A9FF" stroke="#000000" stroke-miterlimit="10" cx="22.5" cy="47.875" r="17.5"/>
	<circle fill="#A9A9FF" stroke="#000000" stroke-miterlimit="10" cx="84.466" cy="47.875" r="17.5"/>
</g>
<g id="circles">
	<circle fill="none" cx="22.491" cy="47.868" r="22.491"/>
	<circle fill="none" cx="84.466" cy="47.868" r="22.491"/>
	<circle fill="none" cx="33.493" cy="18.467" r="18.467"/>
	<circle fill="none" cx="73.424" cy="18.467" r="18.467"/>
	<circle fill="none" cx="53.458" cy="53.042" r="18.467"/>
	<circle fill="none" cx="53.458" cy="26.434" r="15.93"/>
</g>
</svg>
