<?xml version="1.0" encoding="utf-8"?>
<!-- Generator: Adobe Illustrator 15.0.2, SVG Export Plug-In . SVG Version: 6.00 Build 0)  -->
<!DOCTYPE svg PUBLIC "-//W3C//DTD SVG 1.1//EN" "http://www.w3.org/Graphics/SVG/1.1/DTD/svg11.dtd">
<svg version="1.1" xmlns="http://www.w3.org/2000/svg" xmlns:xlink="http://www.w3.org/1999/xlink" x="0px" y="0px"
	 width="88.012px" height="43.006px" viewBox="0 0 88.012 43.006" enable-background="new 0 0 88.012 43.006" xml:space="preserve">
<g id="object">
	<path fill="#B1B1B1" d="M71.512,5.003c-2.932,0-5.762,0.789-8.242,2.224c-3.269-2.698-7.401-4.225-11.758-4.225
		c-5.064,0-9.657,2.049-13.001,5.357c-1.661-2.155-3.753-4.033-6.252-5.476C28.992,0.997,25.279,0,21.523,0
		C13.859,0,6.719,4.121,2.89,10.753C0.018,15.726-0.745,21.52,0.742,27.067s5.044,10.185,10.017,13.056
		c3.267,1.886,6.978,2.883,10.733,2.883c6.694,0,12.986-3.143,17.024-8.354c3.344,3.305,7.934,5.352,12.996,5.352
		c4.355,0,8.487-1.527,11.757-4.225c2.48,1.436,5.312,2.225,8.243,2.225c9.099,0,16.5-7.402,16.5-16.5
		C88.012,12.405,80.611,5.003,71.512,5.003z"/>
	<circle fill="#5F5F5F" stroke="#000000" stroke-miterlimit="10" cx="21.509" cy="21.503" r="16.5"/>
	<g>
		<path fill="#FFFFFF" stroke="#000000" stroke-miterlimit="10" d="M71.512,10.003c-3.505,0-6.639,1.573-8.748,4.046v14.907
			c2.109,2.474,5.243,4.047,8.748,4.047c6.351,0,11.5-5.148,11.5-11.5C83.012,15.152,77.863,10.003,71.512,10.003z"/>
		<path fill="#FF0000" stroke="#000000" stroke-miterlimit="10" d="M62.764,14.049c-2.417-3.643-6.552-6.047-11.252-6.047
			c-7.456,0-13.5,6.043-13.5,13.5c0,7.456,6.044,13.5,13.5,13.5c4.699,0,8.834-2.404,11.252-6.047V14.049z"/>
	</g>
</g>
<g id="circles">
	<circle id="Sodium-Ion" fill="none" cx="21.503" cy="21.503" r="21.503"/>
	<circle id="Oxygen-Ion" fill="none" cx="51.568" cy="21.503" r="18.493"/>
	<circle id="Hydrogen-Ion" fill="none" cx="71.512" cy="21.503" r="16.5"/>
</g>
</svg>
