<?xml version="1.0" encoding="utf-8"?>
<!-- Generator: Adobe Illustrator 15.0.2, SVG Export Plug-In . SVG Version: 6.00 Build 0)  -->
<!DOCTYPE svg PUBLIC "-//W3C//DTD SVG 1.1//EN" "http://www.w3.org/Graphics/SVG/1.1/DTD/svg11.dtd">
<svg version="1.1" xmlns="http://www.w3.org/2000/svg" xmlns:xlink="http://www.w3.org/1999/xlink" x="0px" y="0px"
	 width="103.001px" height="71.509px" viewBox="0 0 103.001 71.509" style="enable-background:new 0 0 103.001 71.509;"
	 xml:space="preserve">
<g id="object">
	<path style="fill:#B1B1B1;" d="M88.02,26.639c2.609-5.348,2.606-11.857-0.586-17.387c-3.295-5.707-9.439-9.251-16.035-9.251
		c-3.232,0-6.426,0.858-9.237,2.48c-3.332,1.923-5.946,4.841-7.53,8.274c-2.061-0.337-4.215-0.337-6.276,0
		c-1.584-3.433-4.199-6.351-7.53-8.275C38.014,0.858,34.82,0,31.588,0c-6.595,0-12.739,3.545-16.034,9.252
		c-2.471,4.279-3.127,9.265-1.849,14.039c0.313,1.17,0.737,2.291,1.256,3.356C6.295,29.421,0,37.547,0,47.123
		c0,11.855,9.645,21.5,21.5,21.5c5.567,0,10.63-2.145,14.452-5.629c3.296,5.113,9.029,8.516,15.551,8.516h0.005
		c4.941-0.001,9.585-1.928,13.079-5.424c0.945-0.946,1.765-1.982,2.473-3.08c3.821,3.477,8.879,5.617,14.44,5.617
		c11.855,0,21.5-9.645,21.5-21.5C103.001,37.54,96.696,29.407,88.02,26.639z M51.503,66.509L51.503,66.509L51.503,66.509
		L51.503,66.509z"/>
	<g>
		<path style="fill:#2F2F2F;stroke:#000000;stroke-miterlimit:10;" d="M59.453,42.117c3.719-2.449,6.23-6.563,6.499-11.282
			l-7.949-13.776c-1.959-0.987-4.166-1.556-6.51-1.556s-4.55,0.569-6.509,1.556l-7.949,13.775c0.269,4.719,2.779,8.833,6.499,11.282
			H59.453z"/>
		<path style="fill:#FF0000;stroke:#000000;stroke-miterlimit:10;" d="M65.952,30.835c3.806,1.682,8.33,1.6,12.21-0.641
			c6.456-3.728,8.67-11.983,4.941-18.441c-3.729-6.457-11.986-8.668-18.442-4.941c-3.878,2.239-6.21,6.113-6.659,10.248
			C58.003,17.059,65.967,30.558,65.952,30.835z"/>
		<path style="fill:#FF0000;stroke:#000000;stroke-miterlimit:10;" d="M43.548,42.117c-3.358,2.457-5.549,6.416-5.548,10.896
			c0.004,7.456,6.049,13.498,13.507,13.496c7.454-0.002,13.497-6.051,13.494-13.505c-0.001-4.478-2.19-8.435-5.548-10.889
			C59.453,42.116,43.78,42.269,43.548,42.117z"/>
		<path style="fill:#FF0000;stroke:#000000;stroke-miterlimit:10;" d="M44.984,17.059c-0.449-4.135-2.781-8.009-6.659-10.248
			c-6.456-3.728-14.713-1.517-18.441,4.941c-3.729,6.457-1.516,14.714,4.941,18.441c3.88,2.24,8.403,2.322,12.21,0.641
			L44.984,17.059z"/>
	</g>
	<circle style="fill:#5F5F5F;stroke:#000000;stroke-miterlimit:10;" cx="81.501" cy="47.123" r="16.5"/>
	<circle style="fill:#5F5F5F;stroke:#000000;stroke-miterlimit:10;" cx="21.5" cy="47.123" r="16.5"/>
</g>
<g id="outline">
	<path style="fill:none;" d="M88.02,26.639c2.609-5.348,2.606-11.857-0.586-17.387c-3.295-5.707-9.439-9.251-16.035-9.251
		c-3.232,0-6.426,0.858-9.237,2.48c-3.332,1.923-5.946,4.841-7.53,8.274c-2.061-0.337-4.215-0.337-6.276,0
		c-1.584-3.433-4.199-6.351-7.53-8.275C38.014,0.858,34.82,0,31.588,0c-6.595,0-12.739,3.545-16.034,9.252
		c-2.471,4.279-3.127,9.265-1.849,14.039c0.313,1.17,0.737,2.291,1.256,3.356C6.295,29.421,0,37.547,0,47.123
		c0,11.855,9.645,21.5,21.5,21.5c5.567,0,10.63-2.145,14.452-5.629c3.296,5.113,9.029,8.516,15.551,8.516h0.005
		c4.941-0.001,9.585-1.928,13.079-5.424c0.945-0.946,1.765-1.982,2.473-3.08c3.821,3.477,8.879,5.617,14.44,5.617
		c11.855,0,21.5-9.645,21.5-21.5C103.001,37.54,96.696,29.407,88.02,26.639z"/>
</g>
</svg>
