<?xml version="1.0" encoding="utf-8"?>
<!-- Generator: Adobe Illustrator 15.0.2, SVG Export Plug-In . SVG Version: 6.00 Build 0)  -->
<!DOCTYPE svg PUBLIC "-//W3C//DTD SVG 1.1//EN" "http://www.w3.org/Graphics/SVG/1.1/DTD/svg11.dtd">
<svg version="1.1" xmlns="http://www.w3.org/2000/svg" xmlns:xlink="http://www.w3.org/1999/xlink" x="0px" y="0px"
	 width="69.372px" height="65.254px" viewBox="0 0 69.372 65.254" style="enable-background:new 0 0 69.372 65.254;"
	 xml:space="preserve">
<g id="object">
	<path style="fill:#B1B1B1;" d="M36.702,17.42c-4.061-4.061-9.46-6.297-15.204-6.297c-5.741,0-11.141,2.236-15.201,6.297
		C2.235,21.481-0.001,26.881,0,32.622c0,11.855,9.645,21.5,21.5,21.5c11.854,0,21.498-9.645,21.498-21.499
		C42.999,26.88,40.764,21.48,36.702,17.42z"/>
	<circle style="fill:#5F5F5F;stroke:#000000;stroke-miterlimit:10;" cx="21.499" cy="32.623" r="16.5"/>
	<circle style="fill:#0000FF;stroke:#000000;stroke-miterlimit:10;" cx="55.872" cy="32.627" r="13"/>
	<path style="fill:#FF0000;stroke:#000000;stroke-miterlimit:10;" d="M57.347,19.712c1.797-3.856,1.756-8.495-0.533-12.459
		c-3.729-6.458-11.984-8.67-18.441-4.941s-8.67,11.983-4.941,18.441c2.289,3.963,6.283,6.317,10.52,6.69L57.347,19.712z"/>
	<path style="fill:#FF0000;stroke:#000000;stroke-miterlimit:10;" d="M43.966,37.808c-4.24,0.369-8.24,2.727-10.531,6.693
		c-3.729,6.459-1.516,14.713,4.941,18.441s14.713,1.518,18.441-4.941c2.29-3.967,2.33-8.609,0.529-12.467L43.966,37.808z"/>
</g>
<g id="outline">
	<path style="fill:none;" d="M68.872,32.627c0-6.683-5.045-12.182-11.531-12.912l0.006-0.003c1.797-3.856,1.756-8.495-0.533-12.459
		c-3.729-6.458-11.984-8.67-18.441-4.941c-4.219,2.437-6.61,6.806-6.732,11.343c-3.083-1.653-6.544-2.531-10.142-2.531
		c-5.741,0-11.141,2.236-15.201,6.297C2.235,21.481-0.001,26.881,0,32.622c0,11.855,9.645,21.5,21.5,21.5
		c3.667,0,7.119-0.927,10.144-2.553c0.111,4.548,2.504,8.932,6.732,11.373c6.457,3.729,14.713,1.518,18.441-4.941
		c2.289-3.966,2.33-8.606,0.53-12.464C63.831,44.803,68.871,39.306,68.872,32.627z M42.935,33.87
		c0.132,1.389,0.484,2.713,1.019,3.939c-0.566,0.05-1.127,0.141-1.682,0.261C42.627,36.716,42.852,35.313,42.935,33.87z
		 M43.954,27.441c-0.531,1.219-0.884,2.532-1.018,3.912c-0.082-1.422-0.301-2.813-0.652-4.167c0.549,0.118,1.104,0.207,1.666,0.257
		L43.954,27.441z"/>
</g>
</svg>
