<?xml version="1.0" encoding="utf-8"?>
<!-- Generator: Adobe Illustrator 15.0.2, SVG Export Plug-In . SVG Version: 6.00 Build 0)  -->
<!DOCTYPE svg PUBLIC "-//W3C//DTD SVG 1.1//EN" "http://www.w3.org/Graphics/SVG/1.1/DTD/svg11.dtd">
<svg version="1.1" xmlns="http://www.w3.org/2000/svg" xmlns:xlink="http://www.w3.org/1999/xlink" x="0px" y="0px"
	 width="100.498px" height="76.84px" viewBox="0 0 100.498 76.84" style="enable-background:new 0 0 100.498 76.84;"
	 xml:space="preserve">
<g id="object">
	<path style="fill:#B1B1B1;" d="M78.998,16.921c-1.382,0-2.729,0.143-4.038,0.393c-0.394-5.96-3.651-11.627-9.202-14.833
		C62.947,0.858,59.752,0,56.521,0c-6.594,0-12.738,3.545-16.033,9.252c-1.925,3.334-2.73,7.174-2.384,10.943
		c-3.797,1.442-7.116,4.052-9.39,7.506l-0.824,1.251v18.917l0.824,1.251c2.273,3.451,5.589,6.061,9.383,7.503
		c-0.352,3.776,0.452,7.625,2.381,10.968c3.295,5.704,9.438,9.248,16.032,9.249c0,0,0,0,0.001,0c3.232,0,6.428-0.858,9.24-2.482
		c4.279-2.472,7.34-6.461,8.618-11.234c0.318-1.189,0.516-2.393,0.596-3.595c1.309,0.25,2.653,0.393,4.033,0.393
		c11.855,0,21.5-9.645,21.5-21.5C100.498,26.566,90.854,16.921,78.998,16.921z"/>
	<path style="fill:#FF0000;stroke:#000000;stroke-miterlimit:10;" d="M57.959,31.911c4.132-0.451,8.003-2.783,10.24-6.658
		c3.729-6.457,1.515-14.713-4.94-18.441C56.8,3.083,48.546,5.295,44.817,11.752c-2.238,3.876-2.322,8.395-0.646,12.199
		L57.959,31.911z"/>
	<path style="fill:#FF0000;stroke:#000000;stroke-miterlimit:10;" d="M44.161,52.893c-1.675,3.805-1.59,8.322,0.646,12.197
		c3.729,6.457,11.986,8.666,18.443,4.938s8.666-11.984,4.937-18.441c-2.237-3.875-6.11-6.207-10.242-6.656L44.161,52.893z"/>
	<path style="fill:#2F2F2F;stroke:#000000;stroke-miterlimit:10;" d="M32.89,46.37c2.449,3.719,6.562,6.229,11.281,6.498
		l13.775-7.949c0.988-1.959,1.557-4.166,1.557-6.51s-0.568-4.549-1.557-6.508l-13.775-7.949c-4.719,0.269-8.832,2.779-11.281,6.499
		V46.37z"/>
	<circle style="fill:#5F5F5F;stroke:#000000;stroke-miterlimit:10;" cx="78.998" cy="38.421" r="16.5"/>
	<path style="fill:#FF0000;stroke:#000000;stroke-miterlimit:10;" d="M22.828,51.868c4.133-0.25,7.758-2.354,10.062-5.498V30.451
		c-2.457-3.354-6.411-5.541-10.887-5.541c-7.456,0-13.501,6.045-13.501,13.5c0,2.165,0.522,4.203,1.428,6.017L22.828,51.868z"/>
	<path style="fill:#FFFFFF;stroke:#000000;stroke-miterlimit:10;" d="M6.252,65.688c5.501,3.176,12.535,1.291,15.71-4.209
		c1.755-3.039,1.958-6.545,0.866-9.611L9.93,44.426c-3.199,0.589-6.133,2.517-7.887,5.554C-1.133,55.479,0.752,62.513,6.252,65.688z
		"/>
</g>
<g id="outline">
	<path style="fill:none;" d="M78.998,16.921c-1.382,0-2.729,0.143-4.038,0.393c-0.394-5.96-3.651-11.627-9.202-14.833
		C62.947,0.858,59.752,0,56.521,0c-6.594,0-12.738,3.545-16.033,9.252c-1.925,3.334-2.73,7.174-2.384,10.943
		c-3.54,1.344-6.651,3.713-8.901,6.824c-2.084-1.326-4.545-2.109-7.2-2.109c-7.456,0-13.501,6.045-13.501,13.5
		c0,2.165,0.522,4.203,1.428,6.017c-3.199,0.589-6.133,2.517-7.887,5.554c-3.176,5.5-1.291,12.533,4.209,15.709
		c5.501,3.176,12.535,1.291,15.71-4.209c1.755-3.039,1.958-6.545,0.866-9.611c2.339-0.142,4.503-0.893,6.37-2.074
		c2.249,3.112,5.36,5.483,8.899,6.829c-0.352,3.776,0.452,7.625,2.381,10.968c3.295,5.704,9.438,9.248,16.032,9.249c0,0,0,0,0.001,0
		c3.232,0,6.428-0.858,9.24-2.482c4.279-2.472,7.34-6.461,8.618-11.234c0.318-1.189,0.516-2.393,0.596-3.595
		c1.309,0.25,2.653,0.393,4.033,0.393c11.855,0,21.5-9.645,21.5-21.5C100.498,26.566,90.854,16.921,78.998,16.921z"/>
</g>
</svg>
