<?xml version="1.0" encoding="utf-8"?>
<!-- Generator: Adobe Illustrator 15.0.2, SVG Export Plug-In . SVG Version: 6.00 Build 0)  -->
<!DOCTYPE svg PUBLIC "-//W3C//DTD SVG 1.1//EN" "http://www.w3.org/Graphics/SVG/1.1/DTD/svg11.dtd">
<svg version="1.1" xmlns="http://www.w3.org/2000/svg" xmlns:xlink="http://www.w3.org/1999/xlink" x="0px" y="0px" width="89.5px"
	 height="56px" viewBox="0 0 89.5 56" style="enable-background:new 0 0 89.5 56;" xml:space="preserve">
<g id="object">
	<path style="fill:#B1B1B1;" d="M61.5,0C51.302,0,42.363,5.482,37.467,13.652C33.528,9.274,27.839,6.5,21.5,6.5
		C9.645,6.5,0,16.145,0,28c0,11.855,9.645,21.5,21.5,21.5c6.339,0,12.028-2.773,15.967-7.152C42.363,50.518,51.302,56,61.5,56
		c15.439,0,28-12.561,28-28S76.939,0,61.5,0z"/>
	<circle style="fill:#00FF00;stroke:#000000;stroke-miterlimit:10;" cx="61.5" cy="28" r="23"/>
	<circle style="fill:#5F5F5F;stroke:#000000;stroke-miterlimit:10;" cx="21.5" cy="28" r="16.5"/>
</g>
<g id="outline">
	<path style="fill:none;" d="M61.5,0C51.302,0,42.363,5.482,37.467,13.652C33.528,9.274,27.839,6.5,21.5,6.5
		C9.645,6.5,0,16.145,0,28c0,11.855,9.645,21.5,21.5,21.5c6.339,0,12.028-2.773,15.967-7.152C42.363,50.518,51.302,56,61.5,56
		c15.439,0,28-12.561,28-28S76.939,0,61.5,0z"/>
</g>
</svg>
