<?xml version="1.0" encoding="utf-8"?>
<!-- Generator: Adobe Illustrator 15.0.2, SVG Export Plug-In . SVG Version: 6.00 Build 0)  -->
<!DOCTYPE svg PUBLIC "-//W3C//DTD SVG 1.1//EN" "http://www.w3.org/Graphics/SVG/1.1/DTD/svg11.dtd">
<svg version="1.1" xmlns="http://www.w3.org/2000/svg" xmlns:xlink="http://www.w3.org/1999/xlink" x="0px" y="0px"
	 width="95.874px" height="74.265px" viewBox="0 0 95.874 74.265" enable-background="new 0 0 95.874 74.265" xml:space="preserve">
<g id="object">
	<path fill="#B1B1B1" d="M49.917,73.627c4.771-1.279,8.762-4.34,11.232-8.621c1.62-2.805,2.477-5.994,2.477-9.223
		c0-0.787-0.067-1.574-0.168-2.357c0.953-0.445,1.867-0.973,2.73-1.58c3.181,2.42,7.1,3.781,11.186,3.781
		c10.201,0,18.5-8.299,18.5-18.5c0-10.201-8.299-18.5-18.5-18.5c-4.086,0-8.005,1.362-11.186,3.781
		c-0.864-0.606-1.778-1.134-2.732-1.581c0.1-0.78,0.166-1.564,0.166-2.348c0-3.228-0.856-6.417-2.477-9.222
		c-2.471-4.28-6.459-7.342-11.232-8.621s-9.759-0.622-14.039,1.849c-5.062,2.922-8.417,8.087-9.112,13.82
		c-1.688-0.427-3.443-0.678-5.262-0.678C9.645,15.628,0,25.273,0,37.127c0,11.855,9.645,21.5,21.5,21.5
		c1.819,0,3.576-0.252,5.264-0.678c0.693,5.734,4.05,10.904,9.114,13.828C40.157,74.249,45.143,74.907,49.917,73.627z"/>
	<g>
		<path fill="#0000FF" stroke="#000000" stroke-miterlimit="10" d="M57.348,50.038c3.672-0.414,6.871-2.361,8.964-5.184V29.403
			c-2.093-2.822-5.291-4.77-8.964-5.186l-13.396,7.731c-0.691,1.588-1.078,3.337-1.078,5.179s0.387,3.592,1.078,5.178L57.348,50.038
			z"/>
		<path fill="#FF0000" stroke="#000000" stroke-miterlimit="10" d="M57.348,24.217c1.797-3.856,1.756-8.495-0.533-12.458
			C53.086,5.3,44.831,3.089,38.374,6.817c-6.457,3.728-8.67,11.983-4.941,18.442c2.289,3.962,6.283,6.317,10.519,6.69L57.348,24.217
			z"/>
		<path fill="#FF0000" stroke="#000000" stroke-miterlimit="10" d="M66.312,44.854c2.44,3.488,6.481,5.773,11.062,5.773
			c7.457,0,13.5-6.043,13.5-13.5c0-7.456-6.043-13.5-13.5-13.5c-4.58,0-8.621,2.287-11.062,5.775V44.854z"/>
		<path fill="#FF0000" stroke="#000000" stroke-miterlimit="10" d="M43.967,42.313c-4.24,0.369-8.24,2.727-10.531,6.693
			c-3.729,6.459-1.516,14.713,4.941,18.441c6.457,3.729,14.712,1.518,18.441-4.941c2.29-3.967,2.33-8.609,0.529-12.467
			L43.967,42.313z"/>
	</g>
	<circle fill="#5F5F5F" stroke="#000000" stroke-miterlimit="10" cx="21.5" cy="37.128" r="16.5"/>
</g>
<g id="circles">
	<circle fill="none" cx="21.5" cy="37.127" r="21.405"/>
	<circle fill="none" cx="77.374" cy="37.127" r="18.5"/>
	<circle fill="none" cx="45.097" cy="18.477" r="18.478"/>
	<circle fill="none" cx="45.121" cy="55.759" r="18.505"/>
	<circle fill="none" cx="54.593" cy="37.127" r="18.571"/>
</g>
</svg>
