<?xml version="1.0" encoding="utf-8"?>
<!-- Generator: Adobe Illustrator 15.0.2, SVG Export Plug-In . SVG Version: 6.00 Build 0)  -->
<!DOCTYPE svg PUBLIC "-//W3C//DTD SVG 1.1//EN" "http://www.w3.org/Graphics/SVG/1.1/DTD/svg11.dtd">
<svg version="1.1" xmlns="http://www.w3.org/2000/svg" xmlns:xlink="http://www.w3.org/1999/xlink" x="0px" y="0px"
	 width="122.997px" height="74.51px" viewBox="0 0 122.997 74.51" enable-background="new 0 0 122.997 74.51" xml:space="preserve">
<g id="object">
	<path fill="#B1B1B1" d="M97.438,9.253c-3.295-5.707-9.439-9.252-16.035-9.252c-3.232,0-6.426,0.858-9.237,2.48
		c-3.333,1.924-5.94,4.847-7.525,8.281c-1.032-0.169-2.081-0.26-3.144-0.26c-1.062,0-2.111,0.09-3.143,0.259
		c-1.584-3.434-4.192-6.357-7.524-8.281C48.019,0.858,44.825,0,41.593,0c-6.595,0-12.739,3.545-16.034,9.252
		c-2.471,4.279-3.127,9.265-1.849,14.038c1.279,4.773,4.341,8.763,8.62,11.233c2.802,1.618,5.988,2.474,9.212,2.474
		c0.587,0,1.169-0.036,1.749-0.091c0.747,1.966,1.806,3.802,3.133,5.431c-2.189,3.094-3.42,6.821-3.419,10.677
		c0.005,10.199,8.306,18.495,18.503,18.495c4.946-0.001,9.59-1.928,13.084-5.424c3.493-3.496,5.416-8.143,5.414-13.083
		c-0.001-3.856-1.234-7.583-3.425-10.675c1.324-1.628,2.379-3.459,3.125-5.42c0.579,0.054,1.161,0.09,1.748,0.09
		c3.225,0,6.411-0.855,9.213-2.473C99.501,29.424,102.539,18.087,97.438,9.253z"/>
	<path fill="#B1B1B1" d="M101.497,31.51c-11.855,0-21.5,9.646-21.5,21.5c0,11.855,9.645,21.5,21.5,21.5s21.5-9.645,21.5-21.5
		C122.997,41.156,113.353,31.51,101.497,31.51z"/>
	<path fill="#B1B1B1" d="M21.5,31.51C9.645,31.51,0,41.156,0,53.01c0,11.855,9.645,21.5,21.5,21.5S43,64.866,43,53.01
		C43,41.156,33.355,31.51,21.5,31.51z"/>
	<g>
		<path fill="#2F2F2F" stroke="#000000" stroke-miterlimit="10" d="M69.458,42.117c3.719-2.449,6.23-6.563,6.499-11.282
			l-7.949-13.776c-1.959-0.987-4.166-1.556-6.51-1.556s-4.55,0.569-6.509,1.556L47.04,30.834c0.269,4.719,2.779,8.833,6.499,11.282
			H69.458z"/>
		<path fill="#FF0000" stroke="#000000" stroke-miterlimit="10" d="M75.957,30.835c3.806,1.682,8.33,1.6,12.21-0.641
			c6.456-3.728,8.67-11.983,4.941-18.441C89.38,5.296,81.123,3.084,74.667,6.812c-3.878,2.239-6.21,6.113-6.659,10.248
			C68.008,17.059,75.972,30.558,75.957,30.835z"/>
		<path fill="#FF0000" stroke="#000000" stroke-miterlimit="10" d="M53.553,42.117c-3.358,2.457-5.549,6.416-5.548,10.896
			c0.004,7.456,6.049,13.498,13.507,13.496c7.454-0.002,13.497-6.051,13.494-13.505c-0.001-4.478-2.19-8.435-5.548-10.889
			C69.458,42.116,53.785,42.269,53.553,42.117z"/>
		<path fill="#FF0000" stroke="#000000" stroke-miterlimit="10" d="M54.989,17.059C54.54,12.924,52.208,9.05,48.33,6.811
			c-6.456-3.728-14.713-1.517-18.441,4.941c-3.729,6.457-1.516,14.714,4.941,18.441c3.88,2.24,8.403,2.322,12.21,0.641
			L54.989,17.059z"/>
	</g>
	<circle fill="#5F5F5F" stroke="#000000" stroke-miterlimit="10" cx="101.497" cy="53.01" r="16.5"/>
	<circle fill="#5F5F5F" stroke="#000000" stroke-miterlimit="10" cx="21.5" cy="53.01" r="16.5"/>
</g>
<g id="circles">
	<circle id="Sodium-Ion_1_" fill="none" cx="21.5" cy="53.01" r="21.5"/>
	<circle id="Sodium-Ion" fill="none" cx="101.298" cy="53.01" r="21.5"/>
	<circle id="Oxygen-Ion_2_" fill="none" cx="41.576" cy="18.499" r="18.499"/>
	<circle id="Oxygen-Ion_1_" fill="none" cx="81.463" cy="18.499" r="18.499"/>
	<circle id="Oxygen-Ion" fill="none" cx="61.499" cy="53.011" r="18.499"/>
	<circle id="Carbon-Ion" fill="none" cx="61.499" cy="30.006" r="19.495"/>
</g>
</svg>
